<?xml version="1.0" encoding="UTF-8"?>
<svg width="375px" height="141px" viewBox="0 0 375 141" version="1.1" xmlns="http://www.w3.org/2000/svg" xmlns:xlink="http://www.w3.org/1999/xlink">
    <title>bg Head</title>
    <defs>
        <rect id="path-1" x="0" y="0" width="375" height="141"></rect>
        <linearGradient x1="39.5286556%" y1="43.1890834%" x2="51.8937945%" y2="64.0865799%" id="linearGradient-3">
            <stop stop-color="#57618D" offset="0%"></stop>
            <stop stop-color="#2C3254" offset="100%"></stop>
        </linearGradient>
        <linearGradient x1="1.32254052%" y1="49.9014455%" x2="100.569002%" y2="49.9014455%" id="linearGradient-4">
            <stop stop-color="#3B436D" offset="0%"></stop>
            <stop stop-color="#878FBC" offset="100%"></stop>
        </linearGradient>
        <linearGradient x1="1.32254052%" y1="49.9014455%" x2="100.569002%" y2="49.9014455%" id="linearGradient-5">
            <stop stop-color="#3B436D" offset="0%"></stop>
            <stop stop-color="#878FBC" offset="100%"></stop>
        </linearGradient>
        <path d="M121.032282,74.9772905 C120.797365,75.2122081 120.640753,75.4463728 120.405835,75.6029846 C117.822494,77.9514081 114.456094,79.437714 110.698918,79.437714 C107.644988,79.437714 104.826729,78.4987964 102.556612,76.8551258 C101.851859,76.3860434 101.225412,75.8379022 100.678024,75.290514 C100.991247,74.8989846 101.538635,74.5857611 102.634918,74.1159258 L103.104753,73.9600669 C103.966118,73.6468434 105.139953,73.1770081 106.706071,72.551314 C106.940988,72.4730081 107.175906,72.3163964 107.254212,72.0814787 C108.114824,73.255314 109.524329,74.0383728 111.089694,74.0383728 C112.655812,74.0383728 113.986259,73.255314 114.847624,72.1597846 C115.004235,72.3163964 115.160847,72.4730081 115.395765,72.551314 C117.117741,73.255314 118.370635,73.7251493 119.232,74.1159258 C120.093365,74.5074552 120.640753,74.7423728 121.032282,74.9772905 Z" id="path-6"></path>
        <mask id="mask-7" maskContentUnits="userSpaceOnUse" maskUnits="objectBoundingBox" x="0" y="0" width="20.3542588" height="7.35623529" fill="white">
            <use xlink:href="#path-6"></use>
        </mask>
        <linearGradient x1="50.1515944%" y1="103.743987%" x2="50.1515944%" y2="46.2664714%" id="linearGradient-8">
            <stop stop-color="#7A83A0" offset="0%"></stop>
            <stop stop-color="#58617D" offset="99.13%"></stop>
        </linearGradient>
        <linearGradient x1="1.32254052%" y1="49.9014455%" x2="100.569002%" y2="49.9014455%" id="linearGradient-9">
            <stop stop-color="#3B436D" offset="0%"></stop>
            <stop stop-color="#878FBC" offset="100%"></stop>
        </linearGradient>
        <linearGradient x1="1.32254052%" y1="49.9014455%" x2="100.569002%" y2="49.9014455%" id="linearGradient-10">
            <stop stop-color="#3B436D" offset="0%"></stop>
            <stop stop-color="#878FBC" offset="100%"></stop>
        </linearGradient>
        <linearGradient x1="1.32254052%" y1="49.9014455%" x2="100.569002%" y2="49.9014455%" id="linearGradient-11">
            <stop stop-color="#3B436D" offset="0%"></stop>
            <stop stop-color="#878FBC" offset="100%"></stop>
        </linearGradient>
        <linearGradient x1="1.32254052%" y1="49.9014455%" x2="100.569002%" y2="49.9014455%" id="linearGradient-12">
            <stop stop-color="#3B436D" offset="0%"></stop>
            <stop stop-color="#878FBC" offset="100%"></stop>
        </linearGradient>
        <linearGradient x1="26.3699386%" y1="25.220254%" x2="55.63897%" y2="69.664017%" id="linearGradient-13">
            <stop stop-color="#3B436D" stop-opacity="0.361396416" offset="0%"></stop>
            <stop stop-color="#878FBC" stop-opacity="0" offset="100%"></stop>
        </linearGradient>
    </defs>
    <g id="avedex移动版" stroke="none" stroke-width="1" fill="none" fill-rule="evenodd">
        <g id="个人中心备份" transform="translate(0.000000, -141.000000)">
            <g id="bg-Head" transform="translate(0.000000, 141.000000)">
                <mask id="mask-2" fill="white">
                    <use xlink:href="#path-1"></use>
                </mask>
                <use id="mask" fill="#D0CFFB" fill-rule="nonzero" opacity="0" xlink:href="#path-1"></use>
                <rect id="矩形" fill="#2C3254" mask="url(#mask-2)" x="0" y="-53" width="375" height="194"></rect>
                <path d="M380.421875,28.1080199 C354.682897,17.9737432 329.516411,22.6948484 304.922418,42.2713354 C268.031429,71.636066 284.355659,98.1618577 229.546487,87.4459315 C174.737316,76.7300053 78.2833923,147.653079 140,158 C181.144405,164.897948 261.28503,160.305379 380.421875,144.222293 L380.421875,28.1080199 Z" id="路径-2" fill="url(#linearGradient-3)" opacity="0.351744186" mask="url(#mask-2)"></path>
                <g id="17" mask="url(#mask-2)">
                    <g transform="translate(219.000000, 22.000000)">
                        <line x1="0" y1="80.9247728" x2="128" y2="80.9247728" id="Path" stroke="#3C446E" stroke-width="2" fill="none" stroke-linecap="round" stroke-linejoin="round"></line>
                        <line x1="65.9177412" y1="67.9335258" x2="65.9177412" y2="27.1595022" id="Path" stroke="#3B436D" stroke-width="1.5" fill="none" stroke-linecap="round" stroke-linejoin="round" stroke-dasharray="0.5"></line>
                        <path d="M70.8502588,29.1163964 L70.8502588,34.5164905 C70.8502588,38.1163022 73.7468235,41.012114 77.3481412,41.012114 L106.236235,41.012114 C109.837553,41.012114 112.734118,43.9079258 112.734118,47.5077375 L112.734118,63.2381846" id="Path" stroke="#3B436D" stroke-width="1.5" fill="none" stroke-linecap="round" stroke-linejoin="round" stroke-dasharray="0.5"></path>
                        <path d="M60.9076706,29.1163964 L60.9076706,34.5164905 C60.9076706,38.1163022 58.0111059,41.012114 54.4097882,41.012114 L25.5216941,41.012114 C21.9203765,41.012114 19.0238118,43.9079258 19.0238118,47.5077375 L19.0238118,63.2381846" id="Path" stroke="#3B436D" stroke-width="1.5" fill="none" stroke-linecap="round" stroke-linejoin="round" stroke-dasharray="0.5"></path>
                        <polyline id="Path" stroke="none" fill="#2D313A" fill-rule="nonzero" points="12.8391529 79.2818552 12.8391529 76.5426552 19.1804235 76.5426552 19.1804235 79.2818552 15.9706353 79.2818552"></polyline>
                        <path d="M13.6222118,78.9686316 L12.6042353,78.9686316 C11.9785412,78.9686316 11.5087059,79.437714 11.5087059,80.0641611 L20.5116235,80.0641611 C20.5116235,79.437714 20.0417882,78.9686316 19.4153412,78.9686316 L16.9886118,78.9686316" id="Path" stroke="none" fill="#474E61" fill-rule="nonzero"></path>
                        <path d="M27.4010353,61.8294316 L27.4010353,76.5426552 C27.4010353,77.0124905 27.0095059,77.4815728 26.4613647,77.4815728 L5.32329412,77.4815728 C4.85421176,77.4815728 4.38437647,77.0907964 4.38437647,76.5426552 L4.38437647,61.8294316 C4.38437647,61.3603493 4.77590588,60.890514 5.32329412,60.890514 L26.4613647,60.890514 C27.0095059,60.890514 27.4010353,61.2820434 27.4010353,61.8294316 C27.4010353,61.8294316 27.4010353,61.7511258 27.4010353,61.8294316 Z" id="Path" stroke="none" fill="#3B436D" fill-rule="nonzero"></path>
                        <polyline id="Path" stroke="none" fill="#2C3254" fill-rule="nonzero" points="26.0698353 73.0987022 26.0698353 75.5246787 5.87143529 75.5246787 5.87143529 62.1426552 26.0698353 62.1426552 26.0698353 70.5944199"></polyline>
                        <path d="M37.1087059,80.0641611 L29.4362353,80.0641611 C28.8097882,80.0641611 28.3399529,79.5943258 28.3399529,78.9686316 L28.3399529,60.7339022 C28.3399529,60.1074552 28.8097882,59.6383728 29.4362353,59.6383728 L37.1087059,59.6383728 C37.7344,59.6383728 38.2042353,60.1074552 38.2042353,60.7339022 L38.2042353,78.9686316 C38.2825412,79.5160199 37.7344,80.0641611 37.1087059,80.0641611 Z" id="Path" stroke="none" fill="#3B436D" fill-rule="nonzero"></path>
                        <path d="M36.1690353,62.3000199 L30.3759059,62.3000199 C30.1409882,62.3000199 29.9060706,62.0651022 29.9060706,61.8301846 C29.9060706,61.5952669 30.1409882,61.3603493 30.3759059,61.3603493 L36.1690353,61.3603493 C36.4039529,61.3603493 36.6388706,61.5952669 36.6388706,61.8301846 C36.6388706,62.0651022 36.4039529,62.3000199 36.1690353,62.3000199 Z" id="Path" stroke="none" fill="#878FBC" fill-rule="nonzero"></path>
                        <path d="M36.1690353,64.6469375 L30.3759059,64.6469375 C30.1409882,64.6469375 29.9060706,64.4120199 29.9060706,64.1771022 C29.9060706,63.9421846 30.1409882,63.7072669 30.3759059,63.7072669 L36.1690353,63.7072669 C36.4039529,63.7072669 36.6388706,63.9421846 36.6388706,64.1771022 C36.6388706,64.4120199 36.4039529,64.6469375 36.1690353,64.6469375 Z" id="Path" stroke="none" fill="#878FBC" fill-rule="nonzero"></path>
                        <path d="M34.368,76.3077375 L32.2544941,76.3077375 C32.0195765,76.3077375 31.7846588,76.0728199 31.7846588,75.8379022 C31.7846588,75.6029846 32.0195765,75.3680669 32.2544941,75.3680669 L34.368,75.3680669 C34.6029176,75.3680669 34.8378353,75.6029846 34.8378353,75.8379022 C34.8378353,76.1511258 34.6029176,76.3077375 34.368,76.3077375 Z" id="Path" stroke="none" fill="#878FBC" fill-rule="nonzero"></path>
                        <path d="M33.2724706,74.2725375 C34.0073412,74.2725375 34.6029176,73.6769611 34.6029176,72.9420905 C34.6029176,72.2072199 34.0073412,71.6116434 33.2724706,71.6116434 C32.5368471,71.6116434 31.9412706,72.2072199 31.9412706,72.9420905 C31.9412706,73.6769611 32.5368471,74.2725375 33.2724706,74.2725375 Z" id="Path" stroke="none" fill="#878FBC" fill-rule="nonzero"></path>
                        <path d="M15.9337412,78.1878316 C15.5422118,78.1878316 15.2289882,77.952914 15.0723765,77.6396905 L14.2117647,76.1526316 C14.0551529,75.917714 13.9768471,75.6835493 13.9768471,75.3703258 L13.9768471,70.5176199 C12.4890353,69.8136199 11.5501176,68.3265611 11.4718118,66.6045846 C11.4718118,66.6045846 11.4718118,66.6045846 11.4718118,66.5270316 C11.4718118,64.6484434 12.6456471,63.0047728 14.4466824,62.3790787 C14.9165176,62.2224669 15.3856,62.1441611 15.9337412,62.1441611 C17.8130824,62.1441611 19.4567529,63.3179964 20.0832,65.1182787 C20.8662588,67.2310316 19.8482824,69.5787022 17.8913882,70.5176199 C17.8130824,70.8308434 17.7347765,71.0657611 17.4998588,71.3789846 L17.4215529,71.4572905 L17.5781647,71.6139022 C17.6564706,71.6922081 17.7347765,71.770514 17.7347765,71.8480669 C17.8913882,72.0829846 17.8913882,72.3179022 17.8913882,72.5528199 C17.8130824,72.7094316 17.7347765,72.8660434 17.6564706,73.0226552 C17.6564706,73.1009611 17.6564706,73.1009611 17.5781647,73.1009611 L17.5781647,73.178514 C17.7347765,73.4134316 17.8913882,73.6483493 17.8913882,73.9615728 L17.8913882,74.2747964 C17.8913882,74.5872669 17.8130824,74.8221846 17.5781647,75.0571022 C17.7347765,75.2920199 17.8130824,75.5269375 17.8130824,75.8394081 L17.8130824,75.9960199 C17.8130824,76.3875493 17.6564706,76.7790787 17.3432471,77.0915493 L16.4818824,77.8746081 C16.4818824,77.8746081 16.4035765,77.952914 16.3252706,78.0312199 C16.3252706,78.1095258 16.1686588,78.1878316 15.9337412,78.1878316 Z M16.0120471,64.7267493 C15.9337412,64.7267493 15.9337412,64.8050552 16.0120471,64.7267493 C15.9337412,64.8050552 15.9337412,64.8833611 16.0120471,64.8833611 C16.0120471,64.8833611 16.0903529,64.8833611 16.0120471,64.7267493 C16.0120471,64.7267493 16.0903529,64.8050552 16.0120471,64.7267493 Z" id="Shape" stroke="none" fill="url(#linearGradient-4)" fill-rule="nonzero"></path>
                        <path d="M16.0120471,62.9264669 C17.4991059,62.9264669 18.9086118,63.8653846 19.4567529,65.3524434 C20.1615059,67.2310316 19.1435294,69.3437846 17.2649412,69.9702316 L17.2649412,70.1268434 C17.2649412,70.439314 17.1866353,70.6742316 17.0300235,70.9091493 L16.6384941,71.4565375 C16.5601882,71.5348434 16.5601882,71.6914552 16.6384941,71.7697611 L17.1866353,72.2395964 C17.2649412,72.3179022 17.1866353,72.3962081 17.1083294,72.474514 L16.9517176,72.5528199 L16.9517176,72.6311258 C16.9517176,72.7869846 16.8734118,72.8652905 16.7951059,72.9435964 C16.7168,73.0219022 16.7168,73.178514 16.7951059,73.2568199 L17.1866353,73.6483493 C17.2649412,73.7266552 17.2649412,73.8049611 17.2649412,73.8832669 L17.2649412,74.1957375 C17.2649412,74.2740434 17.1866353,74.4306552 17.1083294,74.5089611 L16.7951059,74.7438787 C16.7168,74.8221846 16.7168,74.9004905 16.7951059,74.9787964 L17.1083294,75.3695728 C17.1866353,75.4478787 17.1866353,75.5261846 17.1866353,75.6044905 L17.1866353,75.917714 C17.1866353,76.1526316 17.1083294,76.3092434 16.9517176,76.4658552 L16.0903529,77.2481611 C16.0903529,77.2481611 16.0903529,77.2481611 16.0120471,77.2481611 L15.9337412,77.2481611 C15.8554353,77.2481611 15.7771294,77.1698552 15.6988235,77.0915493 L15.6205176,76.9349375 L14.8374588,75.6044905 C14.7591529,75.5261846 14.7591529,75.3703258 14.7591529,75.213714 L14.7591529,69.8136199 C13.2720941,69.3437846 12.3324235,67.9350316 12.3324235,66.3696669 C12.3324235,64.8050552 13.2720941,63.4746081 14.7591529,62.9264669 C15.1506824,63.0047728 15.5422118,62.9264669 16.0120471,62.9264669 Z M16.0120471,65.6656669 C16.4818824,65.6656669 16.8734118,65.2741375 16.8734118,64.8050552 C16.8734118,64.3352199 16.4818824,63.9436905 16.0120471,63.9436905 C15.5422118,63.9436905 15.1506824,64.3352199 15.1506824,64.8050552 C15.1506824,65.2741375 15.5422118,65.6656669 16.0120471,65.6656669 Z M16.0120471,61.3611022 C15.3856,61.3611022 14.8374588,61.4394081 14.2893176,61.6743258 C12.1758118,62.3783258 10.8453647,64.4135258 10.8453647,66.6045846 L10.8453647,66.6828905 C10.8453647,68.4831728 11.8625882,70.1268434 13.3504,70.9874552 L13.3504,75.3695728 C13.3504,75.7611022 13.4287059,76.1526316 13.6636235,76.5441611 L14.4459294,77.8746081 L14.5242353,78.0304669 C14.8374588,78.5786081 15.4639059,78.9701375 16.0903529,78.9701375 C16.4035765,78.9701375 16.7168,78.8918316 16.9517176,78.7352199 C16.9517176,78.7352199 17.0300235,78.7352199 17.0300235,78.656914 C17.1083294,78.5786081 17.1866353,78.5003022 17.2649412,78.5003022 L18.1255529,77.7179964 C18.5953882,77.2481611 18.8303059,76.6224669 18.8303059,76.0743258 L18.8303059,75.7611022 C18.8303059,75.5261846 18.752,75.213714 18.6736941,74.9787964 C18.752,74.7438787 18.8303059,74.5089611 18.8303059,74.1957375 L18.8303059,73.8832669 C18.8303059,73.5700434 18.752,73.3351258 18.6736941,73.0219022 C18.9086118,72.474514 18.9086118,71.8480669 18.5953882,71.3006787 C18.6736941,71.2223728 18.6736941,71.1440669 18.752,70.9874552 C20.8655059,69.735314 21.8834824,67.1527258 21.0221176,64.7267493 C20.1615059,62.7698552 18.2038588,61.3611022 16.0120471,61.3611022 Z" id="Shape" stroke="none" fill="#3B436D" fill-rule="nonzero"></path>
                        <path d="M125.025129,65.1160199 C125.025129,68.9507493 123.537318,72.3947022 121.032282,74.9772905 C120.797365,75.2122081 120.640753,75.4463728 120.405835,75.6029846 C117.822494,77.9514081 114.456094,79.437714 110.698165,79.437714 C107.644988,79.437714 104.826729,78.4987964 102.556612,76.8551258 C101.851859,76.3860434 101.225412,75.8379022 100.678024,75.290514 C98.0156235,72.7079258 96.3719529,69.1073611 96.3719529,65.037714 C96.3719529,57.1333375 102.791529,50.7160199 110.698165,50.7160199 C118.527247,50.7943258 125.025129,57.2116434 125.025129,65.1160199 Z" id="Path" stroke="none" fill="#3B436D" fill-rule="nonzero"></path>
                        <path d="M125.025129,65.1160199 C125.025129,69.2639728 123.224847,73.0203964 120.405835,75.6029846 C117.822494,77.9514081 114.456094,79.437714 110.698165,79.437714 C107.644988,79.437714 104.826729,78.4987964 102.556612,76.8551258 C98.7986824,74.2725375 96.3719529,69.9687258 96.3719529,65.037714 C96.3719529,57.1333375 102.791529,50.7160199 110.698165,50.7160199 C118.605553,50.7160199 125.025129,57.2116434 125.025129,65.1160199 Z" id="Path" stroke="none" fill="#2C3254" fill-rule="nonzero"></path>
                        <path d="M121.032282,74.9772905 C120.797365,75.2122081 120.640753,75.4463728 120.405835,75.6029846 C117.822494,77.9514081 114.456094,79.437714 110.698918,79.437714 C107.644988,79.437714 104.826729,78.4987964 102.556612,76.8551258 C101.851859,76.3860434 101.225412,75.8379022 100.678024,75.290514 C100.991247,74.8989846 101.538635,74.5857611 102.634918,74.1159258 L103.104753,73.9600669 C103.966118,73.6468434 105.139953,73.1770081 106.706071,72.551314 C106.940988,72.4730081 107.175906,72.3163964 107.254212,72.0814787 C107.332518,72.0031728 107.410824,71.8465611 107.410824,71.7682552 C107.489129,71.6116434 107.566682,71.3774787 107.566682,71.1425611 L107.566682,68.2467493 C107.489129,68.1684434 107.489129,68.1684434 107.410824,68.0901375 C107.175906,67.6986081 107.019294,67.3078316 106.940988,66.8379964 L106.706071,66.6813846 C106.001318,66.8379964 106.001318,66.0556905 105.844706,64.5686316 C105.7664,63.9421846 105.844706,63.7855728 106.157929,63.7072669 L106.392847,63.3947964 C105.844706,62.1426552 105.609788,61.1246787 105.609788,60.1857611 C105.609788,58.7770081 106.236235,57.8380905 107.0976,57.3682552 C106.627765,56.3510316 106.627765,55.9595022 106.627765,55.9595022 C106.627765,55.9595022 109.680941,56.4293375 110.698918,56.2727258 C112.029365,56.0378081 114.064565,56.3510316 114.769318,58.0730081 C116.022212,58.5420905 116.492047,59.3251493 116.648659,60.1857611 C116.805271,61.5162081 116.022212,63.0815728 115.943906,63.629714 L115.943906,63.7072669 C116.178824,63.7855728 116.178824,63.9421846 116.100518,64.4903258 C115.943906,65.9773846 115.943906,66.8379964 115.239153,66.6030787 L114.612706,67.776914 C114.612706,67.9335258 114.612706,67.9335258 114.5344,68.0118316 C114.5344,68.2467493 114.5344,68.6382787 114.5344,71.0642552 C114.5344,71.3774787 114.612706,71.6116434 114.769318,71.8465611 C114.847624,71.9248669 114.847624,72.0031728 114.925929,72.0031728 C115.082541,72.1597846 115.239153,72.3163964 115.474071,72.3947022 C117.196047,73.0987022 118.448941,73.5685375 119.310306,73.9600669 C120.093365,74.5074552 120.640753,74.7423728 121.032282,74.9772905 Z" id="Path" stroke="none" fill="url(#linearGradient-5)" fill-rule="nonzero"></path>
                        <use id="Path" stroke="#878FBC" mask="url(#mask-7)" stroke-width="2" fill="none" stroke-linecap="round" stroke-linejoin="round" stroke-dasharray="0.5" xlink:href="#path-6"></use>
                        <path d="M115.787294,63.7080199 C115.8656,63.3164905 115.708988,62.9249611 115.552376,62.5334316 C115.552376,62.4558787 115.474071,62.4558787 115.474071,62.3775728 C114.925929,61.2037375 113.595482,60.7339022 112.420894,60.6555964 C109.289412,60.4989846 108.976188,61.1254316 108.036518,60.1857611 C108.349741,60.6555964 108.349741,61.3595964 107.879906,62.2992669 C107.567435,62.9249611 106.940988,63.2381846 106.392847,63.3947964 C104.983341,60.1857611 105.688094,58.151314 107.0976,57.3682552 C106.627765,56.3510316 106.627765,55.9602552 106.627765,55.9602552 C106.627765,55.9602552 109.680941,56.4293375 110.698918,56.2727258 C112.029365,56.0378081 114.064565,56.3510316 114.769318,58.0730081 C116.022212,58.5428434 116.492047,59.3251493 116.648659,60.1857611 C116.726965,61.594514 115.943906,63.0815728 115.787294,63.7080199 Z" id="Path" stroke="none" fill="#1E1F28" fill-rule="nonzero"></path>
                        <path d="M107.566682,71.2208669 L107.566682,68.3250552 C107.489129,68.2467493 107.489129,68.2467493 107.410824,68.1684434 L107.410824,68.0118316 C107.566682,68.2467493 107.8016,68.4816669 108.036518,68.7165846 L110.307388,70.2811964 C110.854776,70.7510316 111.637835,70.7510316 112.185976,70.2811964 L114.299482,68.4033611 C114.377788,68.3250552 114.456094,68.2467493 114.5344,68.1684434 C114.5344,68.4033611 114.5344,68.7948905 114.5344,71.2208669 C114.5344,71.3774787 114.5344,71.5333375 114.612706,71.6116434 L107.566682,71.6116434 C107.489129,71.4550316 107.566682,71.3774787 107.566682,71.2208669 Z" id="Path" stroke="none" fill="url(#linearGradient-8)" fill-rule="nonzero"></path>
                        <path d="M125.025129,65.1160199 C125.025129,69.2639728 123.224847,73.0203964 120.405835,75.6029846 C117.822494,77.9514081 114.456094,79.437714 110.698165,79.437714 C107.644988,79.437714 104.826729,78.4987964 102.556612,76.8551258 C98.7986824,74.2725375 96.3719529,69.9687258 96.3719529,65.037714 C96.3719529,57.1333375 102.791529,50.7160199 110.698165,50.7160199 C118.605553,50.7160199 125.025129,57.2116434 125.025129,65.1160199 Z" id="Path" stroke="#3B436D" stroke-width="1.5" fill="none" stroke-linecap="round" stroke-linejoin="round"></path>
                        <path d="M121.935059,80.5355022 C121.543529,80.5355022 121.230306,80.3005846 120.995388,79.9873611 L120.056471,78.2661375 C119.899859,78.0312199 119.821553,77.7179964 119.821553,77.4830787 L119.821553,71.9263728 C118.177129,71.1440669 117.0816,69.4220905 117.003294,67.5442552 C117.003294,67.5442552 117.003294,67.5442552 117.003294,67.4659493 C117.003294,65.4307493 118.333741,63.552914 120.291388,62.8481611 C120.838776,62.6923022 121.386918,62.5356905 121.935059,62.5356905 C123.970259,62.5356905 125.8496,63.8661375 126.554353,65.8222787 C127.414965,68.1699493 126.241129,70.7525375 124.048565,71.8488199 C123.970259,72.1612905 123.813647,72.5528199 123.657035,72.7877375 L123.501176,72.9443493 L123.735341,73.1792669 C123.813647,73.2568199 123.891953,73.3351258 123.891953,73.4134316 C124.126871,73.8049611 124.048565,74.2747964 123.735341,74.5872669 C123.735341,74.6655728 123.657035,74.7438787 123.657035,74.8221846 L123.735341,74.9004905 C123.891953,75.1354081 124.048565,75.4486316 124.048565,75.6835493 L124.048565,76.0743258 C124.048565,76.3875493 123.891953,76.7007728 123.735341,76.9356905 L123.813647,77.0139964 C123.970259,77.2481611 124.126871,77.4830787 124.126871,77.7963022 L124.126871,78.1095258 C124.126871,78.5786081 123.970259,78.9701375 123.657035,79.2833611 L122.718118,80.1439728 C122.718118,80.1439728 122.561506,80.2222787 122.561506,80.3005846 C122.248282,80.5355022 122.091671,80.5355022 121.935059,80.5355022 Z M121.935059,65.4307493 C121.856753,65.4307493 121.856753,65.4307493 121.778447,65.5090552 C121.778447,65.5090552 121.700141,65.5873611 121.700141,65.6656669 C121.700141,65.7439728 121.778447,65.8222787 121.856753,65.8222787 C121.935059,65.8222787 121.935059,65.8222787 122.013365,65.7439728 C122.091671,65.6656669 122.091671,65.6656669 122.091671,65.5873611 C122.091671,65.5090552 122.013365,65.4307493 121.935059,65.4307493 Z" id="Shape" stroke="none" fill="url(#linearGradient-9)" fill-rule="nonzero"></path>
                        <path d="M121.935059,63.4746081 C123.657788,63.4746081 125.223153,64.4918316 125.771294,66.2138081 C126.554353,68.3265611 125.379765,70.6742316 123.266259,71.4572905 L123.266259,71.6131493 C123.266259,71.9263728 123.187953,72.2395964 122.953035,72.474514 L122.4832,73.1002081 C122.404894,73.178514 122.404894,73.3351258 122.4832,73.4134316 L123.109647,73.9615728 C123.187953,74.0398787 123.109647,74.1181846 123.031341,74.1957375 L122.874729,74.2740434 L122.874729,74.3523493 C122.874729,74.5089611 122.796424,74.6655728 122.639812,74.7438787 C122.561506,74.8221846 122.561506,74.9787964 122.639812,75.0571022 L123.031341,75.5261846 C123.109647,75.6044905 123.109647,75.6827964 123.109647,75.8394081 L123.109647,76.2309375 C123.109647,76.3875493 123.031341,76.4658552 122.953035,76.5441611 L122.639812,76.8566316 C122.561506,76.9349375 122.561506,77.0915493 122.639812,77.1698552 L123.031341,77.6396905 C123.109647,77.7179964 123.109647,77.7963022 123.109647,77.952914 L123.109647,78.2653846 C123.109647,78.5003022 123.031341,78.7352199 122.874729,78.8918316 L121.935059,79.7524434 C121.935059,79.7524434 121.935059,79.7524434 121.856753,79.7524434 C121.778447,79.7524434 121.778447,79.7524434 121.700141,79.7524434 C121.621835,79.7524434 121.543529,79.6741375 121.465224,79.5958316 L121.386918,79.3616669 L120.526306,77.8746081 C120.448,77.7179964 120.448,77.6396905 120.448,77.4830787 L120.448,71.3789846 C118.803576,70.8308434 117.708047,69.2654787 117.708047,67.5442552 C117.708047,65.8222787 118.803576,64.256914 120.448,63.7095258 C120.996141,63.552914 121.465224,63.4746081 121.935059,63.4746081 Z M121.935059,66.6045846 C122.4832,66.6045846 122.874729,66.1355022 122.874729,65.6656669 C122.874729,65.1175258 122.404894,64.7267493 121.935059,64.7267493 C121.386918,64.7267493 120.996141,65.1958316 120.996141,65.6656669 C120.996141,66.1355022 121.386918,66.6045846 121.935059,66.6045846 Z M121.935059,61.9092434 C121.308612,61.9092434 120.682918,61.9875493 120.056471,62.2224669 C117.786353,63.0047728 116.298541,65.1958316 116.298541,67.5442552 L116.298541,67.6225611 C116.298541,69.6570081 117.394824,71.4572905 119.1168,72.3962081 L119.1168,77.4830787 C119.1168,77.8746081 119.195106,78.3436905 119.430024,78.656914 L120.291388,80.1439728 L120.369694,80.3788905 C120.682918,80.9262787 121.308612,81.3178081 121.935059,81.3178081 C122.248282,81.3178081 122.561506,81.2395022 122.874729,81.0828905 L122.953035,81.0828905 C123.031341,81.0045846 123.109647,80.9262787 123.187953,80.8479728 L124.127624,79.9090552 C124.596706,79.4392199 124.909929,78.8135258 124.909929,78.1870787 L124.909929,77.8746081 C124.909929,77.5613846 124.831624,77.2481611 124.753318,77.0132434 C124.909929,76.7790787 124.909929,76.4658552 124.909929,76.1526316 L124.909929,75.7611022 C124.909929,75.4486316 124.831624,75.1354081 124.675012,74.8221846 C124.988235,74.2740434 124.988235,73.5700434 124.596706,73.0219022 L124.5184,72.9435964 C124.596706,72.7877375 124.675012,72.6311258 124.753318,72.474514 C127.102494,71.1440669 128.276329,68.2482552 127.337412,65.6656669 C126.476047,63.3963022 124.361788,61.9092434 121.935059,61.9092434 Z" id="Shape" stroke="none" fill="#3B436D" fill-rule="nonzero"></path>
                        <path d="M82.9846588,73.4902316 C82.9846588,75.290514 82.2016,76.9334316 80.9494588,78.1080199 C79.8531765,79.1252434 78.3661176,79.7509375 76.7216941,79.7509375 C76.7216941,79.7509375 76.4084706,79.7509375 69.0492235,79.7509375 L68.1103059,79.7509375 C67.7970824,79.7509375 67.4838588,79.7509375 67.1706353,79.7509375 C66.7008,79.7509375 66.1526588,79.7509375 65.6835765,79.7509375 L55.8976,79.7509375 C51.6698353,79.9075493 48.4600471,76.5426552 48.4600471,72.551314 C48.4600471,68.4816669 51.7481412,65.1943258 55.9759059,65.3509375 L56.0542118,65.3509375 C56.4449882,64.2554081 56.9148235,63.2381846 57.4629647,62.3775728 C57.5412706,62.2992669 57.6195765,62.2209611 57.6195765,62.1426552 L57.6978824,62.0643493 C58.8724706,60.4206787 60.4378353,59.3251493 62.1605647,58.6203964 C62.2388706,58.5428434 62.3954824,58.5428434 62.5513412,58.4645375 C62.6296471,58.4645375 62.6296471,58.4645375 62.7079529,58.3862316 C62.7079529,58.3862316 62.7079529,58.3862316 62.7862588,58.3862316 L62.8645647,58.3862316 C65.3703529,57.5248669 68.1103059,57.6031728 70.6153412,58.5428434 C70.6936471,58.5428434 70.6936471,58.5428434 70.7719529,58.6203964 C70.8502588,58.6203964 70.9285647,58.6987022 71.0068706,58.6987022 C74.3732706,60.0291493 77.1132235,63.0815728 77.6613647,67.5427493 C80.6362353,67.6993611 82.9846588,70.2819493 82.9846588,73.4902316 Z" id="Path" stroke="none" fill="url(#linearGradient-10)" fill-rule="nonzero"></path>
                        <path d="M76.7216941,79.7509375 C80.1807059,79.7509375 82.9846588,76.9477375 82.9846588,73.4902316 C82.9846588,70.0319728 80.1807059,67.2295258 76.7216941,67.2295258 C73.2626824,67.2295258 70.4587294,70.0319728 70.4587294,73.4902316 C70.4587294,76.9477375 73.2626824,79.7509375 76.7216941,79.7509375 Z" id="Path" stroke="none" fill="url(#linearGradient-11)" fill-rule="nonzero"></path>
                        <path d="M66.4658824,79.7509375 C72.6053647,79.7509375 77.5830588,74.7755022 77.5830588,68.6382787 C77.5830588,62.5003022 72.6053647,57.5248669 66.4658824,57.5248669 C60.3264,57.5248669 55.3494588,62.5003022 55.3494588,68.6382787 C55.3494588,74.7755022 60.3264,79.7509375 66.4658824,79.7509375 Z" id="Path" stroke="none" fill="url(#linearGradient-12)" fill-rule="nonzero"></path>
                        <path d="M80.9908706,78.0831728 C79.8945882,79.1011493 78.4067765,79.7268434 76.7631059,79.7268434 C76.7631059,79.7268434 76.4498824,79.7268434 69.0906353,79.7268434 L69.0123294,79.6485375 L68.8557176,79.4919258 L66.4289882,76.2053375 L65.7242353,72.9179964 L66.4289882,68.4575728 L63.2975059,67.0488199 L67.8384941,66.970514 L69.4821647,63.9963964 L76.6064941,73.152914 L80.9908706,78.0831728 Z" id="Path" stroke="none" fill="url(#linearGradient-13)" fill-rule="nonzero"></path>
                        <path d="M65.8816,64.3352199 C65.8816,63.8653846 66.2723765,63.552914 66.6639059,63.552914 C67.1337412,63.552914 67.4469647,63.9436905 67.4469647,64.3352199 C67.4469647,64.8050552 67.0554353,65.1175258 66.6639059,65.1175258 C66.1940706,65.1175258 65.8816,64.7267493 65.8816,64.3352199 Z M63.2192,65.9788905 C63.2192,67.4659493 64.1588706,68.7963964 65.5683765,69.2654787 L65.5683765,74.4306552 C65.5683765,74.5872669 65.5683765,74.6655728 65.6466824,74.8221846 L66.3506824,76.0743258 L66.4289882,76.2309375 C66.5072941,76.3092434 66.6639059,76.3875493 66.7422118,76.3092434 C66.7422118,76.3092434 66.7422118,76.3092434 66.8205176,76.3092434 L67.6035765,75.5261846 C67.7601882,75.3695728 67.8384941,75.213714 67.8384941,74.9787964 L67.8384941,74.6655728 C67.8384941,74.5872669 67.8384941,74.5089611 67.7601882,74.4306552 L67.4469647,74.0398787 C67.3686588,73.9615728 67.3686588,73.8832669 67.4469647,73.8049611 L67.7601882,73.4917375 C67.8384941,73.4134316 67.8384941,73.3351258 67.8384941,73.2568199 L67.8384941,72.9435964 C67.8384941,72.8652905 67.8384941,72.7869846 67.7601882,72.7094316 L67.4469647,72.3179022 C67.3686588,72.2395964 67.3686588,72.0829846 67.4469647,72.0829846 C67.5252706,72.0046787 67.6035765,71.9263728 67.6035765,71.7697611 L67.6035765,71.6914552 L67.7601882,71.6131493 C67.8384941,71.5348434 67.8384941,71.4565375 67.8384941,71.4565375 L67.2903529,70.9874552 C67.2120471,70.9091493 67.2120471,70.8308434 67.2903529,70.7525375 L67.6818824,70.2043964 C67.8384941,69.9702316 67.9168,69.735314 67.9168,69.5003964 L67.9168,69.3437846 C69.7170824,68.7180905 70.6567529,66.7611964 70.0303059,64.8833611 C69.4038588,63.0830787 67.4469647,62.1441611 65.5683765,62.7698552 C64.0805647,63.1613846 63.2192,64.4918316 63.2192,65.9788905 Z" id="Shape" stroke="none" fill="#3B436D" fill-rule="nonzero"></path>
                        <path d="M65.9177412,31.1508434 C74.5223529,31.1508434 81.4976,24.1786081 81.4976,15.5770081 C81.4976,6.97616106 74.5223529,0.00317282553 65.9177412,0.00317282553 C57.3138824,0.00317282553 50.3386353,6.97616106 50.3386353,15.5770081 C50.3386353,24.1786081 57.3138824,31.1508434 65.9177412,31.1508434 Z" id="Path" stroke="none" fill="#3B436D" fill-rule="nonzero"></path>
                        <path d="M80.0880941,15.5777611 C80.0880941,21.4469375 76.5650824,26.4562552 71.4767059,28.647314 C69.7539765,29.351314 67.8753882,29.8211493 65.9177412,29.8211493 C63.9608471,29.8211493 62.0822588,29.4296199 60.3595294,28.647314 C55.2711529,26.4562552 51.7481412,21.4469375 51.7481412,15.5777611 C51.6698353,9.70783165 55.2711529,4.69926694 60.2812235,2.586514 C62.0039529,1.88176106 63.8825412,1.41267871 65.8394353,1.41267871 C67.7970824,1.41267871 69.6756706,1.80420812 71.3984,2.586514 C76.4867765,4.69926694 80.0880941,9.70783165 80.0880941,15.5777611 Z" id="Path" stroke="none" fill="#3B436D" fill-rule="nonzero"></path>
                        <path d="M70.4587294,30.6034552 C70.3021176,30.6034552 70.1455059,30.5251493 69.9888941,30.4468434 C69.6756706,30.2119258 69.5973647,29.7428434 69.8322824,29.351314 C70.1455059,28.8814787 70.5370353,28.4907022 70.9285647,28.0991728 C73.6685176,25.3599728 75.3129412,20.6646316 75.3129412,15.5777611 C75.3129412,10.4908905 73.6685176,5.87310224 70.9285647,3.05559635 C70.6153412,2.74237283 70.3021176,2.42990224 69.9888941,2.03837283 C69.7539765,1.7251493 69.7539765,1.17776106 70.1455059,0.942843414 C70.4587294,0.707925767 70.9285647,0.786231649 71.2417882,1.09945518 C71.4767059,1.41267871 71.7116235,1.7251493 72.0248471,1.96006694 C74.9997176,5.01249047 76.8,10.0993611 76.8,15.5777611 C76.8,21.0554081 74.9997176,26.1430316 72.0248471,29.1947022 C71.7116235,29.5079258 71.3984,29.8994552 71.0851765,30.2902316 C70.9285647,30.4468434 70.6936471,30.6034552 70.4587294,30.6034552 Z" id="Path" stroke="none" fill="#2C3254" fill-rule="nonzero"></path>
                        <path d="M60.9859765,30.1336199 C60.7510588,30.1336199 60.5161412,30.0560669 60.3595294,29.8211493 C60.1246118,29.5862316 59.968,29.351314 59.7330824,29.1163964 C56.7582118,26.0647258 54.9579294,20.9778552 54.9579294,15.4994552 C54.9579294,10.0210552 56.7582118,4.93418459 59.7330824,1.88176106 C59.968,1.64684341 60.1246118,1.41267871 60.3595294,1.17776106 C60.5944471,0.864537531 61.1425882,0.786231649 61.4558118,1.09945518 C61.7690353,1.33437283 61.8473412,1.88176106 61.5341176,2.19498459 C61.2992,2.42990224 61.0642824,2.74237283 60.8293647,2.97729047 C58.0894118,5.71649047 56.4457412,10.4125846 56.4457412,15.4994552 C56.4457412,20.5863258 58.0894118,25.2033611 60.8293647,28.0208669 C61.0642824,28.2557846 61.2992,28.5690081 61.5341176,28.8039258 C61.7690353,29.1163964 61.7690353,29.5862316 61.4558118,29.8994552 C61.3775059,30.1336199 61.1425882,30.1336199 60.9859765,30.1336199 Z" id="Path" stroke="none" fill="#2C3254" fill-rule="nonzero"></path>
                        <path d="M65.9184941,31.0725375 C65.5269647,31.0725375 65.1354353,30.7600669 65.1354353,30.2902316 L65.1354353,0.864537531 C65.1354353,0.47300812 65.4486588,0.0814787079 65.9184941,0.0814787079 C66.3875765,0.0814787079 66.7008,0.394702237 66.7008,0.864537531 L66.7008,30.2902316 C66.7008,30.7600669 66.3092706,31.0725375 65.9184941,31.0725375 Z" id="Path" stroke="none" fill="#2C3254" fill-rule="nonzero"></path>
                        <path d="M78.9925647,10.9607258 L52.7661176,10.9607258 C52.3745882,10.9607258 51.9830588,10.6475022 51.9830588,10.1776669 C51.9830588,9.70783165 52.2962824,9.39460812 52.7661176,9.39460812 L78.9925647,9.39460812 C79.3840941,9.39460812 79.7748706,9.70783165 79.7748706,10.1776669 C79.7748706,10.6475022 79.4624,10.9607258 78.9925647,10.9607258 Z" id="Path" stroke="none" fill="#2C3254" fill-rule="nonzero"></path>
                        <path d="M78.9925647,21.7601611 L52.7661176,21.7601611 C52.3745882,21.7601611 51.9830588,21.4469375 51.9830588,20.9778552 C51.9830588,20.5863258 52.2962824,20.1947964 52.7661176,20.1947964 L78.9925647,20.1947964 C79.3840941,20.1947964 79.7748706,20.5080199 79.7748706,20.9778552 C79.7748706,21.4469375 79.4624,21.7601611 78.9925647,21.7601611 Z" id="Path" stroke="none" fill="#2C3254" fill-rule="nonzero"></path>
                        <path d="M56.1317647,18.8643493 C54.9579294,18.8643493 54.0182588,17.9246787 54.0182588,16.7508434 C54.0182588,15.5770081 54.9579294,14.6380905 56.1317647,14.6380905 C57.3063529,14.6380905 58.2460235,15.5770081 58.2460235,16.7508434 C58.2460235,17.9246787 57.3063529,18.8643493 56.1317647,18.8643493 Z" id="Path" stroke="none" fill="#878FBC" fill-rule="nonzero"></path>
                        <path d="M69.5190588,8.6115493 C68.3452235,8.6115493 67.4055529,7.67263165 67.4055529,6.49879635 C67.4055529,5.32496106 68.3452235,4.38604341 69.5190588,4.38604341 C70.6936471,4.38604341 71.6333176,5.32496106 71.6333176,6.49879635 C71.6333176,7.67263165 70.6936471,8.6115493 69.5190588,8.6115493 Z" id="Path" stroke="none" fill="#878FBC" fill-rule="nonzero"></path>
                        <path d="M72.0240941,25.1250552 C70.8502588,25.1250552 69.9105882,24.1861375 69.9105882,23.0123022 C69.9105882,21.8384669 70.8502588,20.8987964 72.0240941,20.8987964 C73.1986824,20.8987964 74.1383529,21.8384669 74.1383529,23.0123022 C74.1383529,24.1861375 73.1986824,25.1250552 72.0240941,25.1250552 Z" id="Path" stroke="none" fill="#878FBC" fill-rule="nonzero"></path>
                        <path d="M69.4407529,30.1336199 C69.3624471,30.1336199 69.2848941,30.1336199 69.2065882,30.055314 C69.0499765,29.9770081 68.9716706,29.7420905 69.1282824,29.5079258 C69.2848941,29.351314 69.3624471,29.1163964 69.5190588,28.9597846 C69.5973647,28.8031728 69.8322824,28.7248669 69.9888941,28.8814787 C70.1455059,28.9597846 70.2238118,29.1947022 70.0672,29.351314 C69.9105882,29.5862316 69.8322824,29.7420905 69.6756706,29.8987022 C69.5973647,30.055314 69.5190588,30.1336199 69.4407529,30.1336199 Z M70.5370353,28.0991728 C70.4587294,28.0991728 70.4587294,28.0991728 70.3804235,28.0991728 C70.2238118,28.0208669 70.1455059,27.7859493 70.2238118,27.6293375 C70.3021176,27.4727258 70.3804235,27.2378081 70.4587294,27.0036434 C70.5370353,26.8470316 70.7719529,26.6904199 70.9285647,26.8470316 C71.0851765,26.9253375 71.2417882,27.1595022 71.0851765,27.316114 C71.0068706,27.5510316 70.9285647,27.7076434 70.7719529,27.9425611 C70.8502588,28.0208669 70.6936471,28.0991728 70.5370353,28.0991728 Z M71.3984,25.9073611 L71.3200941,25.9073611 C71.1634824,25.8290552 71.0068706,25.6731964 71.0851765,25.4382787 C71.1634824,25.2033611 71.2417882,25.0467493 71.2417882,24.8118316 C71.3200941,24.6552199 71.4767059,24.4986081 71.7116235,24.576914 C71.8682353,24.6552199 72.0248471,24.8118316 71.9465412,25.0467493 C71.8682353,25.2816669 71.7899294,25.5165846 71.7899294,25.6731964 C71.7116235,25.8290552 71.5550118,25.9073611 71.3984,25.9073611 Z" id="Shape" stroke="none" fill="#878FBC" fill-rule="nonzero"></path>
                        <path d="M72.3373176,20.7421846 C72.1024,20.7421846 71.9457882,20.5855728 71.9457882,20.3514081 C71.9457882,20.1164905 71.9457882,19.8815728 71.9457882,19.7249611 C71.9457882,19.4900434 72.1024,19.3334316 72.3373176,19.4117375 C72.5722353,19.4117375 72.7288471,19.5683493 72.6505412,19.8032669 C72.6505412,20.0381846 72.6505412,20.2731022 72.6505412,20.5080199 C72.7288471,20.5855728 72.5722353,20.7421846 72.3373176,20.7421846 Z M72.4156235,18.394514 C72.1807059,18.394514 72.0240941,18.2379022 72.0240941,18.0029846 C72.0240941,17.7688199 72.0240941,17.5339022 72.0240941,17.3772905 C72.0240941,17.1423728 72.1807059,16.9857611 72.3373176,16.9857611 C72.5722353,16.9857611 72.7288471,17.1423728 72.7288471,17.2989846 C72.7288471,17.5339022 72.7288471,17.7688199 72.7288471,18.0029846 C72.8071529,18.2379022 72.6505412,18.394514 72.4156235,18.394514 Z M72.2590118,16.0468434 C72.1024,16.0468434 71.9457882,15.8902316 71.8674824,15.7336199 C71.8674824,15.4987022 71.7891765,15.2645375 71.7891765,15.1079258 C71.7891765,14.8730081 71.8674824,14.7163964 72.1024,14.7163964 C72.3373176,14.7163964 72.4939294,14.7947022 72.4939294,15.0296199 C72.4939294,15.2645375 72.5722353,15.4987022 72.5722353,15.7336199 C72.6505412,15.8902316 72.4939294,16.0468434 72.2590118,16.0468434 C72.2590118,16.0468434 72.3373176,16.0468434 72.2590118,16.0468434 Z M71.9457882,13.7774787 C71.7891765,13.7774787 71.6333176,13.6208669 71.5550118,13.4642552 C71.4767059,13.2293375 71.4767059,12.9944199 71.3984,12.8378081 C71.3200941,12.6036434 71.4767059,12.4470316 71.7108706,12.3687258 C71.9457882,12.2904199 72.1024,12.4470316 72.1807059,12.6819493 C72.2590118,12.916114 72.2590118,13.1510316 72.3373176,13.3076434 C72.3373176,13.5425611 72.1807059,13.6991728 71.9457882,13.7774787 Z M71.3984,11.5073611 C71.2417882,11.5073611 71.0851765,11.4290552 71.0068706,11.2731964 C70.9285647,11.0382787 70.8502588,10.8816669 70.8502588,10.6467493 C70.7719529,10.4901375 70.9285647,10.2552199 71.0851765,10.176914 C71.2417882,10.0986081 71.4767059,10.2552199 71.5550118,10.4118316 C71.6333176,10.6467493 71.7108706,10.8033611 71.7108706,11.0382787 C71.7891765,11.1948905 71.6333176,11.4290552 71.4767059,11.5073611 L71.3984,11.5073611 Z M70.6936471,9.31630224 C70.5370353,9.31630224 70.3804235,9.23799635 70.3804235,9.08138459 C70.3021176,8.84646694 70.2238118,8.69060812 70.1455059,8.45569047 C70.0672,8.29907871 70.1455059,8.06416106 70.3804235,7.98585518 C70.5370353,7.9075493 70.7719529,7.98585518 70.8502588,8.22077283 C70.9285647,8.45569047 71.0068706,8.61230224 71.0851765,8.84646694 C71.1634824,9.00307871 71.0851765,9.23799635 70.8502588,9.31630224 C70.7719529,9.23799635 70.6936471,9.31630224 70.6936471,9.31630224 Z" id="Shape" stroke="none" fill="#878FBC" fill-rule="nonzero"></path>
                        <path d="M68.1103059,4.4643493 C68.032,4.4643493 67.8753882,4.38604341 67.7970824,4.30773753 C67.6404706,4.15112577 67.5621647,3.91620812 67.4055529,3.75959635 C67.3272471,3.68129047 67.3272471,3.44712577 67.5621647,3.290514 C67.7187765,3.13390224 67.9536941,3.21220812 68.1103059,3.36881988 C68.2669176,3.52543165 68.3452235,3.75959635 68.5018353,3.91620812 C68.5801412,4.07281988 68.5801412,4.30773753 68.4235294,4.4643493 C68.2669176,4.4643493 68.1886118,4.4643493 68.1103059,4.4643493 Z M66.7008,2.66406694 C66.6224941,2.66406694 66.5441882,2.66406694 66.4658824,2.58576106 C66.3092769,2.4291493 66.1526588,2.27253753 65.9960471,2.11667871 C65.7618824,1.96006694 65.7618824,1.7251493 65.9184941,1.56853753 C66.0743529,1.41192577 66.3092769,1.41192577 66.4658824,1.56853753 C66.6224941,1.7251493 66.7791059,1.88176106 66.9357176,2.03837283 C67.0923294,2.19498459 67.0923294,2.4291493 66.9357176,2.58576106 C66.8574118,2.66406694 66.7791059,2.66406694 66.7008,2.66406694 Z M64.9005176,1.09870224 C64.8222118,1.09870224 64.7439059,1.09870224 64.6656,1.02039635 C64.5089882,0.942090473 64.3523765,0.786231649 64.1957647,0.707925767 C64.0391529,0.629619884 63.9608471,0.394702237 64.1174588,0.238090473 C64.1957647,0.00317282553 64.4306824,-0.0751330568 64.5872941,0.0814787079 C64.7439059,0.238090473 64.9788235,0.316396355 65.1354353,0.47300812 C65.2920471,0.629619884 65.3703529,0.786231649 65.2137412,1.02039635 C65.1354353,1.09870224 65.0571294,1.09870224 64.9005176,1.09870224 Z" id="Shape" stroke="none" fill="#878FBC" fill-rule="nonzero"></path>
                        <path d="M54.7230118,15.5770081 C54.6447059,15.5770081 54.5664,15.5770081 54.4880941,15.4987022 C54.3314824,15.3420905 54.1748706,15.1862316 54.0182588,15.0296199 C53.8616471,14.8730081 53.8616471,14.6380905 54.0182588,14.4814787 C54.1748706,14.3248669 54.4097882,14.3248669 54.5664,14.4814787 C54.7230118,14.6380905 54.8796235,14.7947022 55.0362353,14.951314 C55.1928471,15.1079258 55.1928471,15.3420905 55.0362353,15.4987022 C54.8796235,15.5770081 54.8013176,15.5770081 54.7230118,15.5770081 Z M53.2352,13.8557846 C53.1568941,13.8557846 53.0002824,13.7774787 52.9219765,13.6991728 C52.7661176,13.5425611 52.6878118,13.3076434 52.5312,13.1510316 C52.4528941,12.9944199 52.4528941,12.7595022 52.6095059,12.6036434 C52.7661176,12.5253375 53.0002824,12.5253375 53.1568941,12.6811964 C53.3135059,12.8378081 53.3918118,13.0727258 53.5484235,13.2293375 C53.7050353,13.3859493 53.6267294,13.6208669 53.4701176,13.7774787 C53.3918118,13.7774787 53.3135059,13.8557846 53.2352,13.8557846 Z M51.9830588,11.8205846 C51.8264471,11.8205846 51.7481412,11.7422787 51.6698353,11.5856669 C51.5915294,11.3507493 51.4349176,11.1948905 51.3566118,10.9599728 C51.2783059,10.8033611 51.3566118,10.5684434 51.5132235,10.4901375 C51.6698353,10.4118316 51.9047529,10.4901375 51.9830588,10.6467493 C52.0613647,10.8033611 52.1396706,11.0382787 52.2962824,11.1948905 C52.3745882,11.3507493 52.2962824,11.5856669 52.1396706,11.6639728 C52.1396706,11.8205846 52.0613647,11.8205846 51.9830588,11.8205846 Z" id="Shape" stroke="none" fill="#878FBC" fill-rule="nonzero"></path>
                        <path d="M70.0672,23.0898552 C70.0672,23.0898552 69.9888941,23.0898552 70.0672,23.0898552 C69.8322824,23.0898552 69.5973647,23.0123022 69.3624471,23.0123022 C69.1282824,23.0123022 69.0499765,22.7773846 69.0499765,22.6207728 C69.0499765,22.3858552 69.2841412,22.3075493 69.4407529,22.3075493 C69.6756706,22.3075493 69.9105882,22.3858552 70.0672,22.3858552 C70.3021176,22.3858552 70.3804235,22.6207728 70.3804235,22.7773846 C70.3804235,22.9339964 70.2238118,23.0898552 70.0672,23.0898552 Z M67.7187765,22.6990787 L67.6404706,22.6990787 C67.4055529,22.6207728 67.1706353,22.6207728 67.0140235,22.5424669 C66.7791059,22.4641611 66.7008,22.3075493 66.7791059,22.0726316 C66.8574118,21.837714 67.0140235,21.7594081 67.2489412,21.837714 C67.4838588,21.9160199 67.6404706,21.9160199 67.8753882,21.9943258 C68.1103059,22.0726316 68.1886118,22.2292434 68.1886118,22.4641611 C68.032,22.5424669 67.8753882,22.6990787 67.7187765,22.6990787 Z M65.5269647,22.0726316 L65.4486588,22.0726316 C65.2137412,21.9943258 65.0571294,21.9160199 64.8222118,21.837714 C64.6656,21.7594081 64.5089882,21.5252434 64.5872941,21.3686316 C64.6656,21.2120199 64.9005176,21.0554081 65.0571294,21.133714 C65.2920471,21.2120199 65.4486588,21.2903258 65.6835765,21.3686316 C65.8401882,21.4469375 65.9968,21.6035493 65.9184941,21.837714 C65.7618824,21.9943258 65.6835765,22.0726316 65.5269647,22.0726316 Z M63.2560941,21.2903258 C63.1777882,21.2903258 63.1777882,21.2903258 63.0994824,21.2903258 C62.8653176,21.2120199 62.7087059,21.133714 62.4737882,21.0554081 C62.3171765,20.9771022 62.2388706,20.7421846 62.3171765,20.5855728 C62.3954824,20.429714 62.6304,20.3514081 62.7870118,20.429714 C63.0211765,20.5072669 63.1777882,20.5855728 63.4127059,20.6638787 C63.5693176,20.7421846 63.7259294,20.9771022 63.6476235,21.133714 C63.5693176,21.2120199 63.4127059,21.2903258 63.2560941,21.2903258 Z M61.1425882,20.2731022 C61.0642824,20.2731022 61.0642824,20.2731022 60.9859765,20.1947964 C60.7510588,20.1164905 60.5944471,19.9598787 60.3595294,19.8815728 C60.2029176,19.8032669 60.1246118,19.5683493 60.2029176,19.4117375 C60.2812235,19.2551258 60.5161412,19.1768199 60.6727529,19.2551258 C60.8293647,19.3334316 61.0642824,19.4900434 61.2208941,19.5683493 C61.3775059,19.6466552 61.4558118,19.8815728 61.3775059,20.0381846 C61.4558118,20.2731022 61.2992,20.2731022 61.1425882,20.2731022 Z M59.1073882,19.1768199 C59.0290824,19.1768199 58.9507765,19.1768199 58.9507765,19.0992669 C58.7941647,18.9426552 58.5592471,18.8643493 58.4026353,18.7077375 C58.2460235,18.6294316 58.1677176,18.394514 58.3243294,18.1595964 C58.4026353,18.0029846 58.6375529,17.9246787 58.8724706,18.0812905 C59.0290824,18.2379022 59.264,18.3162081 59.4206118,18.4728199 C59.5772235,18.5511258 59.6555294,18.7860434 59.4989176,18.9426552 C59.3423059,19.0992669 59.264,19.1768199 59.1073882,19.1768199 Z" id="Shape" stroke="none" fill="#878FBC" fill-rule="nonzero"></path>
                        <path d="M74.8431059,23.1681611 C74.6864941,23.1681611 74.5298824,23.0115493 74.4515765,22.8556905 C74.4515765,22.6207728 74.6081882,22.4641611 74.7648,22.4641611 C74.9997176,22.4641611 75.2346353,22.3858552 75.3912471,22.3858552 C75.6254118,22.3858552 75.7820235,22.4641611 75.7820235,22.6990787 C75.7820235,22.9332434 75.7037176,23.0898552 75.4688,23.0898552 C75.3912471,23.0898552 75.1563294,23.1681611 74.8431059,23.1681611 C74.9214118,23.1681611 74.9214118,23.1681611 74.8431059,23.1681611 Z M77.1915294,22.7773846 C77.0349176,22.7773846 76.8783059,22.6990787 76.8,22.4641611 C76.7216941,22.2292434 76.8783059,22.0726316 77.0349176,21.9943258 C77.2698353,21.9160199 77.4264471,21.9160199 77.6613647,21.837714 C77.8179765,21.7594081 78.0528941,21.9160199 78.1312,22.0726316 C78.2095059,22.2292434 78.0528941,22.4641611 77.8962824,22.5424669 C77.6613647,22.6207728 77.4264471,22.6990787 77.2698353,22.6990787 C77.2698353,22.7773846 77.1915294,22.7773846 77.1915294,22.7773846 Z M79.3833412,21.9943258 C79.2267294,21.9943258 79.1484235,21.9160199 79.0701176,21.7594081 C78.9918118,21.6035493 79.0701176,21.3686316 79.2267294,21.2903258 C79.4616471,21.2120199 79.6182588,21.133714 79.7748706,20.9771022 C79.9314824,20.8987964 80.1664,20.9771022 80.2447059,21.133714 C80.3230118,21.2903258 80.2447059,21.5252434 80.0880941,21.6035493 C79.8531765,21.6811022 79.6965647,21.837714 79.4616471,21.9160199 C79.4616471,21.9943258 79.4616471,21.9943258 79.3833412,21.9943258 Z" id="Shape" stroke="none" fill="#878FBC" fill-rule="nonzero"></path>
                        <path d="M71.3984,6.4995493 C71.2417882,6.4995493 71.0851765,6.42124341 71.0068706,6.18632577 C70.9285647,5.95140812 71.0851765,5.79479635 71.2417882,5.71649047 C71.4767059,5.63818459 71.7108706,5.63818459 71.8674824,5.55987871 C72.1024,5.48157283 72.2590118,5.63818459 72.3373176,5.87310224 C72.4156235,6.10801988 72.2590118,6.26463165 72.0240941,6.34293753 C71.7891765,6.42124341 71.6325647,6.42124341 71.3984,6.4995493 C71.4767059,6.4995493 71.4767059,6.4995493 71.3984,6.4995493 Z M73.7468235,6.10801988 C73.5902118,6.10801988 73.4336,5.95140812 73.3552941,5.79479635 C73.3552941,5.55987871 73.5119059,5.40326694 73.6685176,5.40326694 C73.9034353,5.40326694 74.1383529,5.32496106 74.3732706,5.32496106 C74.6081882,5.32496106 74.7648,5.48157283 74.7648,5.63818459 C74.7648,5.87310224 74.6081882,6.029714 74.4515765,6.029714 C74.2166588,6.029714 73.9817412,6.029714 73.7468235,6.10801988 Z M76.7216941,6.029714 C76.4867765,6.029714 76.2518588,6.029714 76.0169412,5.95140812 C75.7820235,5.95140812 75.6254118,5.79479635 75.6254118,5.55987871 C75.6254118,5.32496106 75.7820235,5.1683493 76.0169412,5.1683493 C76.2518588,5.1683493 76.4867765,5.1683493 76.7216941,5.24665518 C76.9566118,5.24665518 77.0349176,5.40326694 77.0349176,5.63818459 C77.1132235,5.87310224 76.9566118,6.029714 76.7216941,6.029714 Z" id="Shape" stroke="none" fill="#878FBC" fill-rule="nonzero"></path>
                        <path d="M57.3063529,15.4987022 C57.2280471,15.4987022 57.1497412,15.4987022 57.0714353,15.4203964 C56.9148235,15.2637846 56.9148235,15.0296199 56.9931294,14.8730081 C57.1497412,14.7163964 57.3063529,14.5597846 57.4629647,14.3248669 C57.6195765,14.1682552 57.8544941,14.1682552 58.0111059,14.2465611 C58.1677176,14.4031728 58.1677176,14.6380905 58.0894118,14.7947022 C57.9328,14.951314 57.7761882,15.1079258 57.6978824,15.2637846 C57.5412706,15.4203964 57.3846588,15.4987022 57.3063529,15.4987022 Z M58.8724706,13.6991728 C58.7941647,13.6991728 58.7158588,13.6991728 58.6375529,13.6208669 C58.4809412,13.4642552 58.4809412,13.2293375 58.6375529,13.0727258 C58.7941647,12.916114 58.9507765,12.7595022 59.1073882,12.6028905 C59.264,12.4470316 59.4981647,12.4470316 59.6547765,12.6028905 C59.8113882,12.7595022 59.8113882,12.9944199 59.6547765,13.1510316 C59.4981647,13.3076434 59.3415529,13.4642552 59.1856941,13.6208669 C59.0290824,13.6991728 58.9507765,13.6991728 58.8724706,13.6991728 Z M60.5944471,12.1338081 C60.5161412,12.1338081 60.3595294,12.0555022 60.2812235,11.9771964 C60.1246118,11.8205846 60.2029176,11.5856669 60.3595294,11.4290552 C60.5161412,11.2724434 60.6727529,11.1165846 60.9076706,10.9599728 C61.0642824,10.8033611 61.2992,10.8816669 61.4558118,11.0382787 C61.6124235,11.1948905 61.5341176,11.4290552 61.3775059,11.5856669 C61.2208941,11.7422787 61.0642824,11.8988905 60.9076706,11.9771964 C60.7510588,12.1338081 60.6727529,12.1338081 60.5944471,12.1338081 Z M62.3954824,10.7250552 C62.3171765,10.7250552 62.1605647,10.6467493 62.0822588,10.5684434 C61.9256471,10.4118316 62.0039529,10.176914 62.1605647,10.0203022 C62.3171765,9.94199635 62.4730353,9.78613753 62.6296471,9.70783165 L62.7079529,9.62952577 C62.8645647,9.55121988 63.0994824,9.55121988 63.2560941,9.70783165 C63.3344,9.86444341 63.3344,10.0986081 63.1777882,10.2552199 L63.0994824,10.3335258 C62.9428706,10.4118316 62.7862588,10.5684434 62.6296471,10.6467493 C62.5513412,10.6467493 62.4730353,10.7250552 62.3954824,10.7250552 Z M64.3523765,9.39460812 C64.1957647,9.39460812 64.1174588,9.31630224 64.0391529,9.23799635 C63.9608471,9.08138459 63.9608471,8.84646694 64.1957647,8.76816106 C64.3523765,8.68985518 64.5872941,8.53399635 64.7439059,8.45569047 C64.9005176,8.37738459 65.1354353,8.45569047 65.2137412,8.61230224 C65.2920471,8.76816106 65.2137412,9.00307871 65.0571294,9.08138459 C64.9005176,9.15969047 64.6656,9.31630224 64.5089882,9.39460812 C64.5089882,9.39460812 64.4306824,9.39460812 64.3523765,9.39460812 Z M66.3875765,8.29907871 C66.2309647,8.29907871 66.1526588,8.22077283 66.0743529,8.06416106 C65.9960471,7.9075493 66.0743529,7.67263165 66.2309647,7.59432577 C66.4658824,7.51601988 66.6224941,7.35940812 66.8574118,7.28185518 C67.0140235,7.2035493 67.2489412,7.28185518 67.3272471,7.437714 C67.4055529,7.59432577 67.3272471,7.82924341 67.1706353,7.9075493 C66.9357176,7.98585518 66.7791059,8.06416106 66.5441882,8.22077283 C66.5441882,8.29907871 66.4658824,8.29907871 66.3875765,8.29907871 Z" id="Shape" stroke="none" fill="#878FBC" fill-rule="nonzero"></path>
                        <path d="M53.3918118,24.8118316 C53.1568941,24.8118316 53.0002824,24.6552199 53.0002824,24.4210552 C53.0002824,24.1861375 53.0002824,23.9512199 53.0002824,23.7163022 C53.0002824,23.4813846 53.1568941,23.3247728 53.3918118,23.4030787 C53.6267294,23.4030787 53.7833412,23.5596905 53.7050353,23.7946081 C53.7050353,24.0295258 53.7050353,24.2644434 53.7050353,24.4210552 C53.7833412,24.6552199 53.6267294,24.8118316 53.3918118,24.8118316 Z M53.7050353,22.4641611 L53.6267294,22.4641611 C53.3918118,22.3858552 53.3135059,22.2292434 53.3135059,21.9943258 C53.3918118,21.7601611 53.3918118,21.5252434 53.4701176,21.3686316 C53.5484235,21.2120199 53.7050353,21.0554081 53.9399529,21.133714 C54.0965647,21.2120199 54.2531765,21.3686316 54.1748706,21.6035493 C54.0965647,21.8384669 54.0965647,21.9943258 54.0182588,22.2292434 C54.0182588,22.3858552 53.8616471,22.4641611 53.7050353,22.4641611 Z M54.4097882,20.2731022 C54.3314824,20.2731022 54.3314824,20.2731022 54.2531765,20.2731022 C54.0965647,20.1947964 53.9399529,19.9598787 54.0182588,19.8032669 C54.0965647,19.5683493 54.1748706,19.4117375 54.2531765,19.1775728 C54.3314824,19.0209611 54.5664,18.9426552 54.7230118,19.0209611 C54.8796235,19.0992669 54.9579294,19.3334316 54.8796235,19.4900434 C54.8013176,19.7249611 54.7230118,19.8815728 54.6447059,20.1164905 C54.6447059,20.1947964 54.5664,20.2731022 54.4097882,20.2731022 Z" id="Shape" stroke="none" fill="#878FBC" fill-rule="nonzero"></path>
                    </g>
                </g>
            </g>
        </g>
    </g>
</svg>