<?xml version="1.0" encoding="UTF-8"?>
<svg width="24px" height="24px" viewBox="0 0 24 24" version="1.1" xmlns="http://www.w3.org/2000/svg" xmlns:xlink="http://www.w3.org/1999/xlink">
    <title>defi</title>
    <defs>
        <linearGradient x1="50%" y1="100%" x2="50%" y2="0%" id="linearGradient-1">
            <stop stop-color="#749DFD" offset="0%"></stop>
            <stop stop-color="#3851C6" offset="100%"></stop>
        </linearGradient>
    </defs>
    <g id="ave改版" stroke="none" stroke-width="1" fill="none" fill-rule="evenodd">
        <g id="首页12/1" transform="translate(-327.000000, -436.000000)">
            <g id="加入社群" transform="translate(0.000000, 304.000000)">
                <g id="编组-9" transform="translate(22.000000, 127.000000)">
                    <g id="nft" transform="translate(302.000000, 5.000000)">
                        <g id="defi" transform="translate(3.000000, 0.000000)">
                            <path d="M0.00720338983,11.9472034 C0.00720338983,18.5409217 5.35246817,23.8861864 11.9461864,23.8861864 C18.5399047,23.8861864 23.8851695,18.5409217 23.8851695,11.9472034 C23.8851695,5.35348512 18.5399047,0.00822033898 11.9461864,0.00822033898 C5.35246817,0.00822033898 0.00720338983,5.35348512 0.00720338983,11.9472034 Z" id="路径" fill="url(#linearGradient-1)"></path>
                            <path d="M7.64245763,10.0584023 L16.4139831,10.0190678 C16.5712712,10.0177119 16.7122881,9.92279661 16.7705932,9.77771186 L18.3936441,5.75737288 C18.4966949,5.50381356 18.3095763,5.22720339 18.035678,5.22584746 L6.02889831,5.2109322 C5.75635593,5.2109322 5.56923729,5.48618644 5.66957627,5.73974576 L7.28177966,9.81432203 C7.33978838,9.96257811 7.48326199,10.0596655 7.64245763,10.0584023 Z" id="路径" fill="#05C46D" fill-rule="nonzero"></path>
                            <path d="M7.64245763,10.0584023 L16.4139831,10.0190678 C16.5712712,10.0177119 16.7122881,9.92279661 16.7705932,9.77771186 L18.3936441,5.75737288 C18.4966949,5.50381356 18.3095763,5.22720339 18.035678,5.22584746 L6.02889831,5.2109322 C5.75635593,5.2109322 5.56923729,5.48618644 5.66957627,5.73974576 L7.28177966,9.81432203 C7.33978838,9.96257811 7.48326199,10.0596655 7.64245763,10.0584023 Z" id="路径" fill="#05C46D" fill-rule="nonzero"></path>
                            <path d="M7.64245763,10.0584023 L16.4139831,10.0190678 C16.5712712,10.0177119 16.7122881,9.92279661 16.7705932,9.77771186 L18.3936441,5.75737288 C18.4966949,5.50381356 18.3095763,5.22720339 18.035678,5.22584746 L6.02889831,5.2109322 C5.75635593,5.2109322 5.56923729,5.48618644 5.66957627,5.73974576 L7.28177966,9.81432203 C7.33978838,9.96257811 7.48326199,10.0596655 7.64245763,10.0584023 Z M20.915678,9.45228814 L19.8499153,7.0970339 C19.7102542,6.78788136 19.2668644,6.79601695 19.1394068,7.11194915 L18.1848305,9.47669492 C18.0817797,9.73161017 18.2702542,10.0082203 18.5441525,10.0068694 L20.5644915,9.99737288 C20.8465254,9.99601695 21.0309322,9.70720339 20.915678,9.45228814 L20.915678,9.45228814 Z M5.88516949,9.54177966 L4.89262712,7.03330508 C4.76923729,6.72144068 4.33398305,6.70381356 4.18618644,7.00618644 L2.955,9.52550847 C2.82889831,9.78313559 3.01737288,10.0827966 3.30347458,10.0814453 L5.52720339,10.0719492 C5.79974576,10.0692373 5.98415254,9.79533898 5.88516949,9.54177966 L5.88516949,9.54177966 Z M6.48449153,11.2285555 L3.7129661,11.2407627 C3.39161017,11.2421186 3.21262712,11.6122881 3.41059322,11.8658475 L9.01466102,19.014322 C9.28991525,19.3655085 9.84177966,19.0482203 9.67771186,18.6333051 L6.84516949,11.4739831 C6.78731369,11.3254207 6.64392042,11.2278485 6.48449153,11.2285555 L6.48449153,11.2285555 Z M15.4255085,11.1865205 L8.59974576,11.2177119 C8.32720339,11.2190678 8.14279661,11.4929661 8.24177966,11.7465254 L11.6139831,20.2726271 C11.7427966,20.5966949 12.2011017,20.5980508 12.3312712,20.275339 L15.7861864,11.7180508 C15.8878814,11.4631356 15.7007627,11.1851695 15.4255085,11.1865205 L15.4255085,11.1865205 Z M17.2004237,11.415678 L14.4004237,18.3499153 C14.2322881,18.7661864 14.7909322,19.0861864 15.0648305,18.7295763 L20.4126271,11.7844915 C20.6092373,11.5295763 20.4261864,11.1607627 20.1048305,11.1621149 L17.5570339,11.174322 C17.3997458,11.175678 17.2600847,11.2705932 17.2004237,11.415678 Z" id="形状" fill="#FFFFFF" fill-rule="nonzero"></path>
                        </g>
                    </g>
                </g>
            </g>
        </g>
    </g>
</svg>