<?xml version="1.0" encoding="UTF-8"?>
<svg width="252px" height="73px" viewBox="0 0 252 73" version="1.1" xmlns="http://www.w3.org/2000/svg" xmlns:xlink="http://www.w3.org/1999/xlink">
    <title>碎片</title>
    <g id="ave-群聊2" stroke="none" stroke-width="1" fill="none" fill-rule="evenodd">
        <g id="点击红包-成功领取空投" transform="translate(-64.000000, -224.000000)">
            <g id="通知" transform="translate(32.000000, 170.333333)">
                <g id="碎片" transform="translate(32.620540, 53.716189)">
                    <g>
                        <polygon id="路径-3" fill="#FFA7A7" transform="translate(11.129460, 28.700478) rotate(-62.000000) translate(-11.129460, -28.700478) " points="14.3794603 19.9504781 3.87946027 27.9504781 9.12946027 37.4504781 18.3794603 28.7004781"></polygon>
                        <polygon id="路径-3备份" fill="#C791FF" transform="translate(244.839892, 12.532476) rotate(-17.000000) translate(-244.839892, -12.532476) " points="249.339892 6.95047811 240.339892 9.57648697 240.339892 18.1144742 248.486128 14.4370611"></polygon>
                        <polygon id="路径-3备份-6" fill="#FF91C9" transform="translate(217.405435, 35.971034) rotate(-17.000000) translate(-217.405435, -35.971034) " points="220.405435 30.3890357 214.405435 33.0150445 214.405435 41.5530318 219.836259 37.8756186"></polygon>
                        <polygon id="路径-3备份-2" fill="#FF91EB" transform="translate(129.913749, 13.016121) rotate(-104.000000) translate(-129.913749, -13.016121) " points="133.413749 7.01612074 126.413749 9.83877546 126.413749 19.0161207 132.74971 15.0633285"></polygon>
                        <polygon id="路径-3备份-4" fill="#FF9791" transform="translate(49.913749, 40.016121) rotate(-104.000000) translate(-49.913749, -40.016121) " points="53.4137487 34.0161207 46.4137487 36.8387755 46.4137487 46.0161207 52.7497102 42.0633285"></polygon>
                        <polygon id="路径-3备份-7" fill="#FF9791" transform="translate(77.002861, 22.741886) rotate(-104.000000) translate(-77.002861, -22.741886) " points="80.5028615 19.7418864 73.5028615 21.1532138 73.5028615 25.7418864 79.8388231 23.7654903"></polygon>
                        <polygon id="路径-3备份-5" fill="#91FFE3" transform="translate(47.913749, 13.016121) rotate(-104.000000) translate(-47.913749, -13.016121) " points="51.4137487 7.01612074 44.4137487 9.83877546 44.4137487 19.0161207 50.7497102 15.0633285"></polygon>
                        <polygon id="路径-3备份-3" fill="#8CFF73" transform="translate(183.245396, 11.063371) rotate(-53.000000) translate(-183.245396, -11.063371) " points="185.413834 5.95047811 173.245396 13.6544781 185.108389 16.1762631 193.245396 9.24089301"></polygon>
                    </g>
                    <g opacity="0.113621911" transform="translate(114.339656, 50.572393) scale(-1, -1) translate(-114.339656, -50.572393) translate(4.379460, 28.398650)">
                        <polygon id="路径-3" fill="#FFC4C4" points="9.4137931 19.551828 0 27.7803994 4.70689655 37.551828 13 28.551828"></polygon>
                        <polygon id="路径-3备份" fill="#C791FF" transform="translate(214.235227, 12.133826) rotate(-17.000000) translate(-214.235227, -12.133826) " points="218.44659 6.46358259 210.293585 9.3485438 210.023865 17.8040695 217.444539 13.9048295"></polygon>
                        <polygon id="路径-3备份-6" fill="#FF91C9" transform="translate(189.900485, 35.572384) rotate(-17.000000) translate(-189.900485, -35.572384) " points="192.76684 29.949526 187.303851 32.7397155 187.034131 41.1952412 192.019971 37.3817826"></polygon>
                        <polygon id="路径-3备份-2" fill="#FF91EB" transform="translate(112.323595, 12.735556) rotate(-104.000000) translate(-112.323595, -12.735556) " points="115.763019 7.46662388 108.88417 9.80336947 109.127571 18.004488 115.316799 14.64021"></polygon>
                        <polygon id="路径-3备份-4" fill="#FF9791" transform="translate(41.362491, 39.735556) rotate(-104.000000) translate(-41.362491, -39.735556) " points="44.8019156 34.4666239 37.9230663 36.8033695 38.166467 45.004488 44.3556955 41.64021"></polygon>
                        <polygon id="路径-3备份-7" fill="#FF9791" transform="translate(65.376187, 22.402279) rotate(-104.000000) translate(-65.376187, -22.402279) " points="68.834327 19.8142263 61.9180466 20.8897724 62.039747 24.9903316 68.2813932 23.3922135"></polygon>
                        <polygon id="路径-3备份-5" fill="#91FFE3" transform="translate(39.588463, 12.735556) rotate(-104.000000) translate(-39.588463, -12.735556) " points="43.027888 7.46662388 36.1490387 9.80336947 36.3924394 18.004488 42.5816679 14.64021"></polygon>
                        <polygon id="路径-3备份-3" fill="#8CFF73" transform="translate(159.500079, 10.615512) rotate(-53.000000) translate(-159.500079, -10.615512) " points="161.878305 5.86278484 149.789455 13.6724011 161.030052 15.3682387 169.210703 8.49078667"></polygon>
                    </g>
                </g>
            </g>
        </g>
    </g>
</svg>