<?xml version="1.0" encoding="UTF-8"?>
<svg width="123px" height="135px" viewBox="0 0 123 135" version="1.1" xmlns="http://www.w3.org/2000/svg" xmlns:xlink="http://www.w3.org/1999/xlink">
    <title>暂无资产-白</title>
    <defs>
        <linearGradient x1="49.9684134%" y1="-2.3164557%" x2="49.9684134%" y2="101.075949%" id="linearGradient-1">
            <stop stop-color="#FDFEFF" offset="0%"></stop>
            <stop stop-color="#ECF0F5" offset="99.64%"></stop>
        </linearGradient>
        <path d="M91.2011719,46.4355611 L91.2011719,95.5144673 C91.2011719,98.9175923 88.5027344,101.61603 85.0996094,101.61603 L26.2246875,101.61603 C21.32625,101.61603 17.5278125,99.3129048 15.1284375,97.4136861 C14.0292969,96.5199361 13.3297656,95.1191548 13.3297656,93.7183736 C13.3297656,93.0222798 13.3297656,92.3175923 13.3297656,91.6214986 C13.3297656,90.6160298 13.3297656,89.4214986 13.3297656,88.2183736 C13.3297656,82.6238423 13.3297656,75.1214986 13.2292187,67.5246236 C13.2292187,66.4246236 13.2292187,65.3246236 13.2292187,64.1300923 C13.2292187,60.1339986 13.2292187,56.1293111 13.1295312,52.3308736 C13.1295312,51.2308736 13.1295312,50.1308736 13.1295312,48.9363423 C13.1295312,41.4339986 13.0298437,35.8394673 13.0298437,34.5418111 C13.0298437,36.7418111 15.1284375,38.7355611 17.9274219,39.5347798 C18.0279687,39.5347798 18.1276562,39.6379048 18.2273437,39.6379048 C19.2267969,39.9386861 20.4264844,40.1363423 21.5264844,40.1363423 L79.8058594,40.4371236 L83.9996094,40.4371236 L85.0050781,40.4371236 C88.5027344,40.3339986 91.2011719,43.0410298 91.2011719,46.4355611 Z" id="path-2"></path>
        <filter x="-49.3%" y="-41.0%" width="198.5%" height="214.8%" filterUnits="objectBoundingBox" id="filter-3">
            <feOffset dx="0" dy="11" in="SourceAlpha" result="shadowOffsetOuter1"></feOffset>
            <feGaussianBlur stdDeviation="11" in="shadowOffsetOuter1" result="shadowBlurOuter1"></feGaussianBlur>
            <feColorMatrix values="0 0 0 0 0.396078431   0 0 0 0 0.478431373   0 0 0 0 0.576470588  0 0 0 0.27 0" type="matrix" in="shadowBlurOuter1"></feColorMatrix>
        </filter>
        <linearGradient x1="49.9776086%" y1="3.45231129%" x2="49.9776086%" y2="59.625512%" id="linearGradient-4">
            <stop stop-color="#B0BACC" offset="0%"></stop>
            <stop stop-color="#969EAE" offset="100%"></stop>
        </linearGradient>
        <linearGradient x1="49.938297%" y1="-2.33039876%" x2="49.938297%" y2="101.087519%" id="linearGradient-5">
            <stop stop-color="#FDFEFF" offset="0%"></stop>
            <stop stop-color="#ECF0F5" offset="99.64%"></stop>
        </linearGradient>
    </defs>
    <g id="avedex移动版" stroke="none" stroke-width="1" fill="none" fill-rule="evenodd">
        <g id="画板" transform="translate(-215.000000, -339.000000)">
            <g id="暂无资产-白" transform="translate(224.000000, 339.000000)">
                <path d="M5.09867187,24.0918111 C6.39976562,23.6535298 7.15945312,22.2441548 6.72546875,20.9464986 C6.29148437,19.6402486 4.88125,18.8839986 3.47101562,19.3136861 C2.1690625,19.7519673 1.41023437,21.1613423 1.84421875,22.4589986 C2.27734375,23.7652486 3.6884375,24.5214986 5.09867187,24.0918111 Z" id="Path" fill="#EAEEF9" fill-rule="nonzero"></path>
                <path d="M10.6313281,15.8418111 C11.4992969,15.5238423 12.0415625,14.5441548 11.7158594,13.6761861 C11.3901562,12.8082173 10.4139062,12.2668111 9.5459375,12.5933736 C8.67882812,12.9199361 8.13570312,13.8910298 8.46140625,14.7589986 C8.67882812,15.6269673 9.65507812,16.1683736 10.6313281,15.8418111 Z" id="Path" fill="#EAEEF9" fill-rule="nonzero"></path>
                <path d="M102.467578,35.5644673 C104.100391,34.1464986 104.203516,31.6543111 102.691016,30.1332173 C101.273047,28.6207173 98.7808594,28.5089986 97.2597656,29.9183736 C95.6355469,31.3277486 95.5238281,33.8285298 97.0449219,35.3410298 C98.4542969,36.8621236 100.955078,36.9738423 102.467578,35.5644673 Z" id="Path" fill="#EAEEF9" fill-rule="nonzero"></path>
                <path d="M108.328516,43.1613423 C108.981641,42.5082173 109.084766,41.5371236 108.440234,40.8839986 C107.787109,40.2308736 106.807422,40.1277486 106.162891,40.7722798 C105.509766,41.4254048 105.398047,42.4050923 106.051172,43.0496236 C106.592578,43.8144673 107.675391,43.8144673 108.328516,43.1613423 Z" id="Path" fill="#EAEEF9" fill-rule="nonzero"></path>
                <path d="M9.5459375,107.511342 C10.1973437,106.866811 10.305625,105.887124 9.65507812,105.233999 C9.00367187,104.589467 8.02742187,104.477749 7.376875,105.130874 C6.72546875,105.775405 6.6171875,106.755092 7.26773437,107.408217 C7.91914062,108.052749 8.89539062,108.164467 9.5459375,107.511342 Z" id="Path" fill="#EAEEF9" fill-rule="nonzero"></path>
                <path d="M50.5527344,112.830874 C78.4308594,112.830874 101.109766,90.2636861 101.109766,62.4972798 C100.998047,34.6105611 78.4308594,12.0519673 50.5527344,12.0519673 C22.5646094,12.0519673 -4.88498131e-14,34.6105611 -4.88498131e-14,62.3855611 C-4.88498131e-14,90.2636861 22.5646094,112.830874 50.5527344,112.830874 Z" id="Path" fill="#EAEEF9" fill-rule="nonzero"></path>
                <path d="M84.1027344,36.4410298 L84.1027344,40.3339986 L83.8019531,40.3339986 L80.0035156,40.3339986 L21.7258594,40.1363423 C20.6267187,40.1363423 19.5267187,39.9386861 18.4275781,39.6379048 C18.3278906,39.6379048 18.2273437,39.5347798 18.1276562,39.5347798 C16.7277344,39.0363423 15.5289062,38.4347798 14.5285937,37.4379048 C13.729375,36.6386861 13.1295312,35.4355611 13.1295312,34.3441548 C13.1295312,32.2386861 14.8285156,30.6402486 17.2278906,29.6433736 C18.0279687,29.2394673 19.0274219,29.0418111 20.026875,28.9386861 C20.4264844,28.9386861 20.8269531,28.8441548 21.2265625,28.8441548 L76.5058594,28.8441548 C77.1074219,28.8441548 77.6058594,28.9386861 78.1042969,29.0418111 C78.5082031,29.1449361 78.9035156,29.2394673 79.3074219,29.4457173 C82.2035156,30.6402486 84.1027344,33.2441548 84.1027344,36.4410298 Z" id="Path" fill="#D5DDEA" fill-rule="nonzero"></path>
                <path d="M83.8019531,40.3339986 L80.0035156,40.3339986 L21.7258594,40.1363423 C20.6267187,40.1363423 19.5267187,39.9386861 18.4275781,39.6379048 C18.3270312,39.6379048 18.2273437,39.5347798 18.1276562,39.5347798 C16.7277344,39.0363423 15.5289062,38.4347798 14.5285937,37.4379048 C15.2289844,36.7418111 16.1278906,36.1402486 17.2278906,35.7363423 C18.0279687,35.3410298 19.0274219,35.1433736 20.026875,35.0402486 C20.4264844,34.9371236 20.8260937,34.9371236 21.2265625,34.9371236 L76.5058594,34.9371236 C77.1074219,34.9371236 77.6058594,35.0402486 78.1042969,35.1433736 C78.5082031,35.2379048 78.9035156,35.3410298 79.3074219,35.5386861 C81.5074219,36.4410298 83.1058594,38.2371236 83.8019531,40.3339986 Z" id="Path" fill="#020305" fill-rule="nonzero" opacity="0.1"></path>
                <g id="Path" fill-rule="nonzero">
                    <use fill="black" fill-opacity="1" filter="url(#filter-3)" xlink:href="#path-2"></use>
                    <use fill="url(#linearGradient-1)" xlink:href="#path-2"></use>
                </g>
                <path d="M79.4019531,63.1332173 C77.3050781,63.1332173 75.5089844,63.9324361 74.2027344,65.2300923 C72.9050781,66.5277486 72.0113281,68.4269673 72.0113281,70.4293111 C72.0113281,70.5238423 72.0113281,70.7300923 72.0113281,70.8246236 C72.2089844,74.7261861 75.5089844,77.8199361 79.4019531,77.8199361 L91.2011719,77.8199361 L91.2011719,63.1332173 L79.4019531,63.1332173 Z" id="Path" fill="url(#linearGradient-4)" fill-rule="nonzero" opacity="0.1"></path>
                <path d="M91.2011719,60.3316548 L91.2011719,62.1277486 C91.0980469,62.1277486 91.0035156,62.1277486 90.7972656,62.1277486 L78.8003906,62.1277486 C76.7035156,62.1277486 74.9074219,62.9269673 73.6097656,64.2332173 C72.4066406,65.4277486 71.5042969,67.2238423 71.4097656,69.1230611 C71.4097656,69.2261861 71.4097656,69.4238423 71.4097656,69.5269673 C71.4097656,73.6261861 74.7097656,76.9261861 78.8003906,76.9261861 L90.7972656,76.9261861 C91.3988281,76.9261861 91.8972656,76.7285298 92.1035156,76.4277486 C92.1980469,76.3246236 92.3011719,76.1269673 92.3011719,76.0238423 L92.3011719,61.2339986 C92.3011719,60.7269673 91.8027344,60.4261861 91.2011719,60.3316548 Z" id="Path" fill="url(#linearGradient-5)" fill-rule="nonzero"></path>
                <path d="M78.2074219,73.9269673 C80.6050781,73.9269673 82.6074219,71.9246236 82.6074219,69.5269673 C82.6074219,67.1293111 80.6050781,65.1269673 78.2074219,65.1269673 C75.8097656,65.1269673 73.8074219,67.1293111 73.8074219,69.5269673 C73.8074219,71.9246236 75.8097656,73.9269673 78.2074219,73.9269673 Z" id="Path" fill="#DADFEC" fill-rule="nonzero"></path>
                <path d="M39.8380469,73.5144673 C41.4897656,73.5144673 42.8871094,72.1222798 42.8871094,70.4636861 C42.8871094,68.8136861 41.4897656,67.4214986 39.8380469,67.4214986 C38.1863281,67.4214986 36.7889844,68.8136861 36.7889844,70.4636861 C36.7889844,72.1222798 38.1863281,73.5144673 39.8380469,73.5144673 Z" id="Path" fill="#989FB0" fill-rule="nonzero"></path>
                <path d="M63.215625,73.5144673 C64.8673437,73.5144673 66.2646875,72.1222798 66.2646875,70.4636861 C66.2646875,68.8136861 64.8673437,67.4214986 63.215625,67.4214986 C61.5639062,67.4214986 60.1665625,68.8136861 60.1665625,70.4636861 C60.1665625,72.2425923 61.5639062,73.5144673 63.215625,73.5144673 Z" id="Path" fill="#989FB0" fill-rule="nonzero"></path>
                <polygon id="Path" fill="#989FB0" fill-rule="nonzero" points="39.7194531 60.3746236 33.0111719 64.0011861 33.9169531 65.6769673 40.624375 62.0589986"></polygon>
                <polygon id="Path" fill="#989FB0" fill-rule="nonzero" points="62.8005469 60.3316548 61.895625 62.0074361 68.6039062 65.6254048 69.5105469 63.9496236"></polygon>
                <path d="M51.5272656,80.6300923 C53.4917969,80.6300923 55.0842187,79.4355611 55.0842187,77.9660298 C55.0842187,76.4879048 53.4917969,75.2933736 51.5272656,75.2933736 C49.561875,75.2933736 47.9694531,76.4879048 47.9694531,77.9660298 C47.9694531,79.4355611 49.561875,80.6300923 51.5272656,80.6300923 Z" id="Path" fill="#989FB0" fill-rule="nonzero"></path>
                <path d="M103.885547,3.99962358 C93.9683594,1.81681108 83.3464844,2.16915483 73.6011719,5.03946733 C71.5988281,5.64962358 69.4254687,6.43165483 67.8588281,7.82384233 C65.4216406,9.82618608 64.3775,13.3925923 65.1603906,16.4433736 C65.9441406,19.4855611 68.5549219,22.0121236 71.7707031,22.6222798 C73.7730469,23.1379048 76.2136719,22.4418111 77.4339844,20.7918111 C78.5597656,19.0558736 78.3019531,16.4433736 76.9097656,14.8707173 C75.5175781,13.1347798 73.2574219,12.4386861 71.1691406,12.5246236 C69.0774219,12.6105611 66.9882812,13.3925923 65.1603906,14.3550923 C59.2427344,17.5691548 54.4560156,23.2324361 52.4545312,29.8410298 C51.4396094,33.0550923 51.0821094,36.4324361 51.3425,39.7582173" id="Path" stroke="#C9D4E2" stroke-width="2" stroke-dasharray="4"></path>
                <path d="M109.110547,1.73087358 C109.024609,3.03712358 108.938672,4.25743608 107.976172,4.51524858 C107.022266,4.78165483 106.583984,3.90509233 105.973828,2.69337358 C105.372266,1.55899858 105.716016,0.338686078 106.764453,0.0808735783 C107.718359,-0.185532672 109.282422,0.166811078 109.110547,1.73087358 Z" id="Path" fill="#DAE2EB" fill-rule="nonzero"></path>
                <path d="M108.062109,7.99571733 C108.328516,6.43165483 108.586328,5.56368608 107.718359,5.12540483 C106.764453,4.69571733 106.154297,5.47774858 105.105859,6.51759233 C104.237891,7.48009233 104.762109,8.87227983 105.630078,9.30196733 C106.669922,9.82618608 107.804297,9.30196733 108.062109,7.99571733 Z" id="Path" fill="#DAE2EB" fill-rule="nonzero"></path>
                <path d="M109.282422,5.12540483 C109.196484,5.73556108 108.766797,6.17384233 108.156641,6.25977983 C107.890234,6.25977983 107.632422,6.25977983 107.280078,6.25977983 C106.068359,6.08790483 105.105859,5.29727983 105.191797,4.51524858 C105.277734,3.73321733 106.412109,3.30352983 107.804297,3.47540483 C108.070703,3.47540483 108.328516,3.56134233 108.500391,3.64727983 C109.024609,3.81915483 109.368359,4.42931108 109.282422,5.12540483 C109.282422,5.12540483 109.282422,5.03946733 109.282422,5.12540483 Z" id="Path" fill="#989FB0" fill-rule="nonzero"></path>
                <path d="M13.4775781,18.2222798 C13.4775781,16.7441548 13.4775781,15.2660298 14.5217187,14.8277486 C15.6535156,14.3980611 16.2628125,15.4379048 17.1325,16.9160298 C17.91625,18.2222798 17.5682031,19.6144673 16.4364062,20.0527486 C15.4790625,20.4910298 13.4775781,20.2246236 13.4775781,18.2222798 Z" id="Path" fill="#DAE2EB" fill-rule="nonzero"></path>
                <path d="M14.086875,10.9175923 C13.9124219,12.7394673 13.6511719,13.7879048 14.7829687,14.2175923 C15.9147656,14.6558736 16.5232031,13.7019673 17.655,12.3097798 C18.5255469,11.0894673 17.91625,9.52540483 16.7844531,9.08712358 C15.6535156,8.64884233 14.2604687,9.43087358 14.086875,10.9175923 Z" id="Path" fill="#DAE2EB" fill-rule="nonzero"></path>
                <path d="M13.1295312,14.3980611 C13.1295312,13.7019673 13.6520312,13.1777486 14.2604687,13.0918111 C14.5217187,13.0058736 14.8697656,13.0058736 15.2178125,13.0918111 C16.6108594,13.1777486 17.8294531,13.9597798 17.7417969,14.8277486 C17.655,15.7043111 16.5232031,16.3058736 15.0442187,16.1339986 C14.7829687,16.1339986 14.5217187,16.0480611 14.2604687,15.9621236 C13.564375,15.8761861 13.1295312,15.1800923 13.1295312,14.3980611 Z" id="Path" fill="#989FB0" fill-rule="nonzero"></path>
                <path d="M19.0471875,14.6558736 C28.1857812,14.6558736 45.0690625,19.9668111 45.3303125,39.4574361" id="Path" stroke="#C9D4E2" stroke-width="2" stroke-dasharray="4"></path>
            </g>
        </g>
    </g>
</svg>