<?xml version="1.0" encoding="UTF-8"?>
<svg width="128px" height="135px" viewBox="0 0 128 135" version="1.1" xmlns="http://www.w3.org/2000/svg" xmlns:xlink="http://www.w3.org/1999/xlink">
    <title>暂无搜索结果-白</title>
    <defs>
        <linearGradient x1="49.9684134%" y1="-2.3164557%" x2="49.9684134%" y2="101.075949%" id="linearGradient-1">
            <stop stop-color="#FDFEFF" offset="0%"></stop>
            <stop stop-color="#ECF0F5" offset="99.64%"></stop>
        </linearGradient>
        <path d="M104.8,29.5 L105.6,93.9 C105.6,96.1 103.8,97.8 101.6,97.8 L38.8,97.8 C36.6,97.8 34.8,96 34.8,93.9 L34.8,11.1 C34.8,8.9 36.6,7.2 38.8,7.2 L84.3,7.2 L104.8,29.5 Z" id="path-2"></path>
        <filter x="-54.4%" y="-30.4%" width="208.8%" height="185.0%" filterUnits="objectBoundingBox" id="filter-3">
            <feOffset dx="0" dy="11" in="SourceAlpha" result="shadowOffsetOuter1"></feOffset>
            <feGaussianBlur stdDeviation="11" in="shadowOffsetOuter1" result="shadowBlurOuter1"></feGaussianBlur>
            <feColorMatrix values="0 0 0 0 0.396078431   0 0 0 0 0.478431373   0 0 0 0 0.576470588  0 0 0 0.27 0" type="matrix" in="shadowBlurOuter1"></feColorMatrix>
        </filter>
    </defs>
    <g id="avedex移动版" stroke="none" stroke-width="1" fill="none" fill-rule="evenodd">
        <g id="画板" transform="translate(-350.000000, -342.000000)" fill-rule="nonzero">
            <g id="暂无搜索结果-白" transform="translate(350.000000, 346.000000)">
                <path d="M70.3,105.7 C98.3,105.7 121,83 121,54.9 C121,26.8 98.2,4.1 70.3,4.1 C42.3,4.1 19.6,26.8 19.6,54.9 C19.6,83 42.3,105.7 70.3,105.7 Z" id="Path" fill="#EAEEF9"></path>
                <path d="M117.7,21.6 C119.965,21.6 121.8,19.764 121.8,17.5 C121.8,15.235 119.965,13.4 117.7,13.4 C115.436,13.4 113.6,15.235 113.6,17.5 C113.6,19.764 115.436,21.6 117.7,21.6 Z" id="Path" fill="#EAEEF9"></path>
                <path d="M123.7,5.6 C125.247,5.6 126.5,4.346 126.5,2.8 C126.5,1.253 125.247,-5.68434189e-14 123.7,-5.68434189e-14 C122.154,-5.68434189e-14 120.9,1.253 120.9,2.8 C120.9,4.346 122.154,5.6 123.7,5.6 Z" id="Path" fill="#EAEEF9"></path>
                <path d="M22.3,21.5 C23.847,21.5 25.1,20.246 25.1,18.7 C25.1,17.153 23.847,15.9 22.3,15.9 C20.754,15.9 19.5,17.153 19.5,18.7 C19.5,20.246 20.754,21.5 22.3,21.5 Z" id="Path" fill="#EAEEF9"></path>
                <path d="M5.2,75.5 C8.072,75.5 10.4,73.172 10.4,70.3 C10.4,67.428 8.072,65.1 5.2,65.1 C2.329,65.1 5.68434189e-14,67.428 5.68434189e-14,70.3 C5.68434189e-14,73.172 2.329,75.5 5.2,75.5 Z" id="Path" fill="#EAEEF9"></path>
                <g id="Path">
                    <use fill="black" fill-opacity="1" filter="url(#filter-3)" xlink:href="#path-2"></use>
                    <use fill="url(#linearGradient-1)" xlink:href="#path-2"></use>
                </g>
                <path d="M65.4,84.9 L63.1,84.9 C62.6,84.9 62.2,84.4 62.2,83.8 C62.2,83.2 62.6,82.7 63.1,82.7 L65.4,82.7 C65.9,82.7 66.3,83.2 66.3,83.8 C66.3,84.5 65.9,84.9 65.4,84.9 Z" id="Path" fill="#CED7E2"></path>
                <path d="M58.4,84.9 L45,84.9 C44.5,84.9 44.1,84.4 44.1,83.8 C44.1,83.2 44.5,82.7 45,82.7 L58.4,82.7 C58.9,82.7 59.3,83.2 59.3,83.8 C59.3,84.5 58.9,84.9 58.4,84.9 Z" id="Path" fill="#D5DDEA"></path>
                <path d="M75.5,20.7 L45.4,20.7 C44.7,20.7 44.1,20.1 44.1,19.4 C44.1,18.7 44.7,18.1 45.4,18.1 L75.5,18.1 C76.2,18.1 76.8,18.7 76.8,19.4 C76.8,20.1 76.2,20.7 75.5,20.7 Z" id="Path" fill="#D5DDEA"></path>
                <path d="M57,27.9 L45.4,27.9 C44.7,27.9 44.1,27.3 44.1,26.6 C44.1,25.9 44.7,25.3 45.4,25.3 L56.9,25.3 C57.6,25.3 58.2,25.9 58.2,26.6 C58.2,27.3 57.6,27.9 57,27.9 Z" id="Path" fill="#D5DDEA"></path>
                <path d="M84.3,7.2 L84.3,25 C84.3,27.5 86.5,29.5 89,29.5 L104.8,29.5" id="Path" fill="#D5DDEA"></path>
                <path d="M109.6,99.3 C108.6,99.3 107.6,98.9 106.8,98 L90.1,81.3 L89.5,81.7 C84.1,85.7 77.8,87.8 71.4,87.8 C63.7,87.8 56,84.7 50.3,79.3 C44.3,73.6 41,65.9 41,57.5 C41,40.8 54.6,27.2 71.3,27.2 C82.7,27.2 92.7,33.2 98.1,43.4 C103.4,53.5 102.7,65.3 96.2,74.8 L95.8,75.4 L112.6,92.2 C114.3,93.9 113.9,95.6 113.6,96.5 C112.8,98.1 111.2,99.3 109.6,99.3 Z M71.3,35.5 C59.1,35.5 49.3,45.4 49.3,57.5 C49.3,71.3 60.6,79.6 71.6,79.6 C78.3,79.6 84.4,76.6 88.7,71.2 C94,64.6 94.9,55.7 91.2,48 C87.4,40.3 79.8,35.5 71.3,35.5 Z" id="Shape" fill="#D5DDEA"></path>
                <path d="M61.8,61.1 C63.1,61.1 64.2,60 64.2,58.7 C64.2,57.4 63.1,56.3 61.8,56.3 C60.5,56.3 59.4,57.4 59.4,58.7 C59.4,60 60.5,61.1 61.8,61.1 Z" id="Path" fill="#989FB0"></path>
                <path d="M80.2,61.1 C81.5,61.1 82.6,60 82.6,58.7 C82.6,57.4 81.5,56.3 80.2,56.3 C78.9,56.3 77.8,57.4 77.8,58.7 C77.8,60.1 78.9,61.1 80.2,61.1 Z" id="Path" fill="#989FB0"></path>
                <polygon id="Path" fill="#989FB0" points="61.707 50.76 56.427 53.61 57.14 54.93 62.419 52.079"></polygon>
                <polygon id="Path" fill="#989FB0" points="79.874 50.722 79.162 52.042 84.442 54.892 85.154 53.572"></polygon>
                <path d="M71,66.7 C72.547,66.7 73.8,65.76 73.8,64.6 C73.8,63.44 72.547,62.5 71,62.5 C69.454,62.5 68.2,63.44 68.2,64.6 C68.2,65.76 69.454,66.7 71,66.7 Z" id="Path" fill="#989FB0"></path>
            </g>
        </g>
    </g>
</svg>