<?xml version="1.0" encoding="UTF-8"?>
<svg width="24px" height="24px" viewBox="0 0 24 24" version="1.1" xmlns="http://www.w3.org/2000/svg" xmlns:xlink="http://www.w3.org/1999/xlink">
    <title>game</title>
    <defs>
        <linearGradient x1="50%" y1="0%" x2="50%" y2="100%" id="linearGradient-1">
            <stop stop-color="#FF4D7C" offset="0%"></stop>
            <stop stop-color="#FF87A7" offset="100%"></stop>
        </linearGradient>
    </defs>
    <g id="ave改版" stroke="none" stroke-width="1" fill="none" fill-rule="evenodd">
        <g id="首页12/1" transform="translate(-230.000000, -434.000000)">
            <g id="加入社群" transform="translate(0.000000, 304.000000)">
                <g id="编组-9" transform="translate(22.000000, 127.000000)">
                    <g id="gamefi" transform="translate(200.000000, 3.000000)">
                        <g id="game" transform="translate(8.000000, 0.000000)">
                            <path d="M0.0158898305,11.9472034 C0.0158898305,16.2125913 2.29144707,20.1539722 5.9853813,22.2866662 C9.67931554,24.4193601 14.2304302,24.4193601 17.9243645,22.2866662 C21.6182987,20.1539722 23.8938559,16.2125913 23.8938559,11.9472034 C23.8938559,5.35348512 18.5485911,0.00822033898 11.9548729,0.00822033898 C5.36115461,0.00822033898 0.0158898305,5.35348512 0.0158898305,11.9472034 Z" id="路径" fill="url(#linearGradient-1)"></path>
                            <path d="M14.2789407,6.89228814 L12.7955508,6.89228814 L12.7955508,5.70449153 L14.1243644,5.70449153 C14.6165678,5.70449153 15.0152119,5.30584746 15.0152119,4.81364407 C15.0152119,4.32144068 14.6165678,3.92279661 14.1243644,3.92279661 L12.4063983,3.92279661 C11.6389407,3.92279661 11.0152119,4.54652542 11.0152119,5.31398305 L11.0152119,6.8909322 L9.60639831,6.8909322 C6.09860169,6.8909322 3.25385593,9.73432203 3.25385593,13.2434746 C3.25385593,16.7512712 6.09724576,19.5960169 9.60639831,19.5960169 L14.2775847,19.5960169 C17.7853814,19.5960169 20.6301276,16.7526271 20.6301276,13.2434746 C20.6314831,9.7370339 17.7867373,6.89228814 14.2789407,6.89228814 Z M9.64978814,14.1207627 L8.74131356,14.1207627 L8.74131356,15.0278814 C8.74131356,15.5200847 8.34266949,15.9187288 7.8504661,15.9187288 C7.35826271,15.9187288 6.95961864,15.5200847 6.95961864,15.0278814 L6.95961864,14.1207627 L6.0525,14.1207627 C5.56029661,14.1207627 5.16165254,13.7221186 5.16165254,13.2299153 C5.16165254,12.7377119 5.56029661,12.3390678 6.0525,12.3390678 L6.95961864,12.3390678 L6.95961864,11.4319492 C6.95961864,10.9397458 7.35826271,10.5411017 7.8504661,10.5411017 C8.34266949,10.5411017 8.74131356,10.9397458 8.74131356,11.4319492 L8.74131356,12.3390678 L9.6484322,12.3390678 C10.1406356,12.3390678 10.5392797,12.7377119 10.5392797,13.2299153 C10.5392797,13.7221186 10.1406356,14.1207627 9.64978814,14.1207627 Z M14.8592797,12.9777119 C14.2152595,12.9777119 13.693178,12.4556304 13.693178,11.8116102 C13.693178,11.1675424 14.2152119,10.6455085 14.8592797,10.6455085 C15.5033475,10.6455085 16.0253814,11.1675424 16.0253814,11.8116102 C16.0253814,12.1208796 15.9025246,12.4174821 15.6838381,12.6361686 C15.4651516,12.8548551 15.1685491,12.9777119 14.8592797,12.9777119 L14.8592797,12.9777119 Z M17.4992797,15.6041525 C17.1900103,15.6041525 16.8934077,15.4812958 16.6747212,15.2626093 C16.4560348,15.0439228 16.333178,14.7473202 16.333178,14.4380508 C16.333178,13.7940307 16.8552595,13.2719492 17.4992797,13.2719492 C18.1432998,13.2719492 18.6653814,13.7940307 18.6653814,14.4380508 C18.6653814,14.7473202 18.5425246,15.0439228 18.3238381,15.2626093 C18.1051516,15.4812958 17.8085491,15.6041525 17.4992797,15.6041525 Z" id="形状" fill="#FFFFFF" fill-rule="nonzero"></path>
                        </g>
                    </g>
                </g>
            </g>
        </g>
    </g>
</svg>