<?xml version="1.0" standalone="no"?><!DOCTYPE svg PUBLIC "-//W3C//DTD SVG 1.1//EN" "http://www.w3.org/Graphics/SVG/1.1/DTD/svg11.dtd"><svg t="1684572213274" class="icon" viewBox="0 0 1092 1024" version="1.1" xmlns="http://www.w3.org/2000/svg" p-id="8248" xmlns:xlink="http://www.w3.org/1999/xlink" width="213.28125" height="200"><path d="M1006.660267 45.511111l-404.366223 299.190045L677.4784 168.391111z" fill="#E17726" p-id="8249"></path><path d="M73.955556 45.511111L474.680889 347.500089 403.114667 168.391111zM861.070222 739.236978l-107.588266 164.363378 230.377244 63.442488 65.991111-224.210488zM31.175111 742.832356l65.581511 224.210488 229.967645-63.442488-107.178667-164.363378z" fill="#E27625" p-id="8250"></path><path d="M314.322489 461.596444l-63.988622 96.529067 227.965155 10.376533-7.600355-245.327644zM766.270578 461.596444l-158.788267-141.220977-5.188267 248.126577 227.965156-10.376533zM326.724267 903.623111l137.989689-66.628267-118.784-92.5696zM615.901867 836.994844l137.580089 66.605512-18.796089-159.175112z" fill="#E27625" p-id="8251"></path><path d="M753.481956 903.623111l-137.602845-66.628267 11.218489 89.361067-1.206044 37.888zM326.724267 903.623111l127.977244 60.6208-0.796444-37.888 10.808889-89.361067z" fill="#D5BFB2" p-id="8252"></path><path d="M457.1136 685.397333l-114.392178-33.518933 80.782222-37.091556zM623.502222 685.397333l33.5872-70.610489 81.191822 37.091556z" fill="#233447" p-id="8253"></path><path d="M326.724267 903.623111l20.002133-164.386133-127.203556 3.595378zM733.866667 739.236978l19.615289 164.363378 107.588266-160.768zM830.2592 558.125511l-227.965156 10.376533 21.185423 116.895289 33.609955-70.610489 81.191822 37.091556zM342.721422 651.8784l80.782222-37.091556 33.609956 70.610489 21.185422-116.895289-227.965155-10.376533z" fill="#CC6228" p-id="8254"></path><path d="M250.311111 558.125511l95.618845 186.299733-3.185778-92.546844zM738.281244 651.8784l-3.595377 92.546844 95.573333-186.299733zM478.321778 568.502044l-21.208178 116.895289 26.783289 138.0352 6.007467-181.930666zM602.294044 568.502044l-11.195733 72.612978 5.597867 182.317511L623.502222 685.397333z" fill="#E27525" p-id="8255"></path><path d="M623.502222 685.397333l-26.806044 138.0352 19.205689 13.562311 118.784-92.5696 3.595377-92.546844zM342.721422 651.8784l3.185778 92.546844 118.784 92.5696 19.205689-13.562311-26.783289-138.0352z" fill="#F5841F" p-id="8256"></path><path d="M625.891556 964.243911l1.206044-37.888-10.399289-8.783644h-152.7808l-10.012444 8.783644 0.796444 37.888-127.977244-60.643555 44.805689 36.704711 90.794666 62.646044h155.556978l91.204267-62.646044 44.373333-36.704711z" fill="#C0AC9D" p-id="8257"></path><path d="M615.901867 836.994844l-19.205689-13.562311h-112.799289l-19.182933 13.562311-10.808889 89.361067 10.012444-8.783644H616.675556l10.399288 8.783644z" fill="#161616" p-id="8258"></path><path d="M1023.840711 364.248178l33.9968-165.159822L1006.637511 45.511111 615.924622 334.734222l150.368711 126.862222 212.3776 61.826845 46.808178-54.636089-20.411733-14.791111 32.403911-29.4912-24.803556-19.160178 32.403911-24.735289zM22.755556 199.111111l34.4064 165.137067-22.004623 16.384 32.790756 24.712533-24.803556 19.160178 32.403911 29.513955-20.388977 14.768356 46.785422 54.636089 212.3776-61.826845 150.391467-126.862222L73.955556 45.511111z" fill="#763E1A" p-id="8259"></path><path d="M978.648178 523.423289l-212.3776-61.826845 64.011378 96.529067-95.596089 186.299733 126.384355-1.592888h188.780089zM314.322489 461.596444L101.944889 523.423289l-70.769778 219.409067h188.347733l126.407112 1.592888L250.311111 558.125511zM602.294044 568.502044l13.585067-233.767822 61.599289-166.343111H403.114667l61.599289 166.343111 13.585066 233.767822 5.211022 73.409423 0.386845 181.521066h112.799289l0.4096-181.521066z" fill="#F5841F" p-id="8260"></path></svg>