<?xml version="1.0" encoding="UTF-8"?>
<svg width="18px" height="20px" viewBox="0 0 18 20" version="1.1" xmlns="http://www.w3.org/2000/svg" xmlns:xlink="http://www.w3.org/1999/xlink">
    <title>红包个数</title>
    <g id="ave-群聊2" stroke="none" stroke-width="1" fill="none" fill-rule="evenodd">
        <g id="创建红包-拼手气红包" transform="translate(-30.000000, -337.000000)" fill="#ED4A4A" fill-rule="nonzero">
            <g id="红包个数" transform="translate(14.000000, 320.000000)">
                <g id="红包个数" transform="translate(16.000000, 17.000000)">
                    <path d="M17.9994375,6 L17.9994375,18.0079681 C17.9994375,18.5362878 17.762392,19.0429689 17.3404484,19.4165474 C16.9185047,19.7901258 16.3462263,20 15.7495078,20 L2.24992968,20 C1.65321122,20 1.0809328,19.7901258 0.658989137,19.4165474 C0.237045472,19.0429689 0,18.5362878 0,18.0079681 L0,6.000498 C1.90495396,7.51295301 4.25757163,8.51305198 6.78185057,8.88346613 C6.9662844,9.8402405 7.90288766,10.5399487 8.99915628,10.5399487 C10.0954249,10.5399487 11.0320281,9.8402405 11.216462,8.88346613 C13.7414271,8.5132603 16.0946992,7.51295923 18,6 L17.9994375,6 Z M15.7495781,0 C16.346278,0 16.9185385,0.215055108 17.340469,0.597855654 C17.7623995,0.9806562 17.9994375,1.49984516 17.9994375,2.04120688 L18,4.64323531 C16.168092,6.40755297 13.7549961,7.58537638 11.1227423,8 C10.8064102,7.18175363 9.95491117,6.63404271 8.9991563,6.63404271 C8.04340143,6.63404271 7.19190244,7.18175363 6.87557028,8 C4.24387999,7.58516931 1.83138981,6.40735256 0,4.64323531 L0.000562482422,2.04120688 C0.00056247543,1.49984516 0.237600547,0.9806562 0.659531027,0.597855654 C1.08146151,0.215055108 1.65372205,0 2.25042186,0 L15.7495781,0 Z" id="形状"></path>
                </g>
            </g>
        </g>
    </g>
</svg>