<?xml version="1.0" encoding="UTF-8"?>
<svg width="44px" height="44px" viewBox="0 0 44 44" version="1.1" xmlns="http://www.w3.org/2000/svg" xmlns:xlink="http://www.w3.org/1999/xlink">
    <title>红包图标</title>
    <g id="ave-群聊2" stroke="none" stroke-width="1" fill="none" fill-rule="evenodd">
        <g id="红包未领取" transform="translate(-253.000000, -543.000000)" fill-rule="nonzero">
            <g id="Group-10备份" transform="translate(16.000000, 506.000000)">
                <g id="Group-7" transform="translate(41.000000, 19.000000)">
                    <g id="红包图标" transform="translate(196.000000, 18.000000)">
                        <path d="M0,22 C0,29.8598431 4.19317603,37.1226378 11,41.0525594 C17.8068236,44.9824811 26.1931764,44.9824811 33,41.0525594 C39.806824,37.1226378 44,29.8598431 44,22 C44,9.8497355 34.1502645,0 22,0 C9.8497355,0 0,9.8497355 0,22 L0,22 Z" id="路径" fill="#FFDA71"></path>
                        <g id="编组" transform="translate(11.000000, 8.555556)" fill="#ED4A4A">
                            <path d="M21.9993125,8.09516191 L21.9993125,24.5142857 C21.9993125,25.2366849 21.7095993,25.9294965 21.1939065,26.4403099 C20.6782137,26.9511233 19.9787842,27.2380952 19.2494844,27.2380952 L2.7505156,27.2380952 C2.02121583,27.2380952 1.32178629,26.9511233 0.806093477,26.4403099 C0.290400669,25.9294965 0.000687478516,25.2366849 0.000687478516,24.5142857 L0.000687478516,8.09584285 C2.32889179,10.1639018 5.20422353,11.5313895 8.28935693,12.0378762 C8.51476902,13.3461239 9.65947056,14.3028716 10.9993126,14.3028716 C12.3391545,14.3028716 13.4838561,13.3461239 13.7092682,12.0378762 C16.7952402,11.5316744 19.6713717,10.1639103 22,8.09516191 L21.9993125,8.09516191 Z M19.2494844,0 C19.9787842,0 20.6782137,0.286971968 21.1939065,0.797785346 C21.7095993,1.30859872 21.9993125,2.00141034 21.9993125,2.72380954 L22,6.19598571 C19.7610013,8.55031115 16.8116619,10.122012 13.5944628,10.6752905 C13.2078347,9.58341327 12.1671137,8.85254162 10.9989688,8.85254162 C9.83082397,8.85254162 8.79010298,9.58341327 8.40347479,10.6752905 C5.18696443,10.1217357 2.23836532,8.55004372 0,6.19598571 L0.000687478516,2.72380954 C0.00068746997,2.00141034 0.290400669,1.30859872 0.806093477,0.797785346 C1.32178629,0.286971968 2.02121583,0 2.7505156,0 L19.2494844,0 Z" id="形状"></path>
                        </g>
                    </g>
                </g>
            </g>
        </g>
    </g>
</svg>