<?xml version="1.0" encoding="UTF-8"?>
<svg width="24px" height="24px" viewBox="0 0 24 24" version="1.1" xmlns="http://www.w3.org/2000/svg" xmlns:xlink="http://www.w3.org/1999/xlink">
    <title>主流币</title>
    <defs>
        <linearGradient x1="55.72505%" y1="100%" x2="55.7250483%" y2="0%" id="linearGradient-1">
            <stop stop-color="#FE8D9B" offset="0%"></stop>
            <stop stop-color="#FC5462" offset="100%"></stop>
        </linearGradient>
    </defs>
    <g id="ave改版" stroke="none" stroke-width="1" fill="none" fill-rule="evenodd">
        <g id="首页12/1" transform="translate(-22.000000, -434.000000)">
            <g id="加入社群" transform="translate(0.000000, 304.000000)">
                <g id="编组-9" transform="translate(22.000000, 127.000000)">
                    <g id="编组" transform="translate(0.000000, 3.000000)">
                        <path d="M0.0147033898,11.9394492 C0.0147033898,16.204837 2.29026063,20.146218 5.98419486,22.2789119 C9.6781291,24.4116059 14.2292438,24.4116059 17.923178,22.2789119 C21.6171123,20.146218 23.8926695,16.204837 23.8926695,11.9394492 C23.8926695,5.34573089 18.5474047,0.000466101695 11.9536864,0.000466101695 C5.35996817,0.000466101695 0.0147033898,5.34573089 0.0147033898,11.9394492 Z" id="路径" fill="url(#linearGradient-1)"></path>
                        <path d="M14.4553814,5.22487288 L10.5272458,5.22487288 C10.4784322,5.22487288 10.4296186,5.22622881 10.382161,5.22622881 C8.40385593,4.1184322 6.84995763,3.97063559 5.8804661,4.80317797 L5.83165254,4.85199153 C5.33131356,5.40792373 5.48588983,6.32995763 5.89809322,7.12317797 C5.26351695,7.74690678 4.76182203,8.49266949 4.42283898,9.31300847 L3.7625,9.31300847 C3.09131356,9.31300847 2.54487288,9.85944915 2.54487288,10.5306356 L2.54487288,12.6201271 C2.54487288,13.2913136 3.09131356,13.8377542 3.7625,13.8377542 L4.23572034,13.8377542 C4.7645339,15.4838559 5.94419492,16.8845339 7.48317797,17.6872458 L7.48317797,18.4194492 C7.48317797,18.9699576 7.93199153,19.4187712 8.4825,19.4187712 L10.1597881,19.4187712 C10.7062288,19.4187712 11.1523305,18.9767373 11.1591102,18.4316525 L14.4553814,18.4316525 C14.5123305,18.4316525 14.5692797,18.4302966 14.6275847,18.4289407 C14.6330085,18.9753814 15.0791102,19.4187712 15.6269068,19.4187712 L17.3041949,19.4187712 C17.8547034,19.4187712 18.3035169,18.9699576 18.3035169,18.4194492 L18.3035169,17.1936864 C20.0350424,15.9516525 21.0601271,13.9679237 21.0601271,11.8282627 C21.0587712,8.18758475 18.0960593,5.22487288 14.4553814,5.22487288 Z M8.41470339,10.9441949 C7.9137156,10.9441949 7.50758475,10.5380641 7.50758475,10.0370763 C7.50758475,9.53608848 7.9137156,9.12995763 8.41470339,9.12995763 C8.91569118,9.12995763 9.32182203,9.53608848 9.32182203,10.0370763 C9.32182203,10.5380641 8.91569118,10.9441949 8.41470339,10.9441949 L8.41470339,10.9441949 Z M14.4201271,8.74351695 L11.4425,8.74351695 C11.0452119,8.74351695 10.7225,8.42080508 10.7225,8.02351695 C10.7225,7.62622881 11.0452119,7.30351695 11.4425,7.30351695 L14.4201271,7.30351695 C14.8174153,7.30351695 15.1401271,7.62622881 15.1401271,8.02351695 C15.1401271,8.42080508 14.8187712,8.74351695 14.4201271,8.74351695 Z" id="形状" fill="#FFFFFF" fill-rule="nonzero"></path>
                    </g>
                </g>
            </g>
        </g>
    </g>
</svg>