<?xml version="1.0" encoding="UTF-8"?>
<svg width="24px" height="24px" viewBox="0 0 24 24" version="1.1" xmlns="http://www.w3.org/2000/svg" xmlns:xlink="http://www.w3.org/1999/xlink">
    <title>web3.0</title>
    <defs>
        <linearGradient x1="50%" y1="0%" x2="50%" y2="100%" id="linearGradient-1">
            <stop stop-color="#FF7220" offset="0%"></stop>
            <stop stop-color="#FFA00A" offset="100%"></stop>
        </linearGradient>
    </defs>
    <g id="ave改版" stroke="none" stroke-width="1" fill="none" fill-rule="evenodd">
        <g id="首页12/1" transform="translate(-125.000000, -434.000000)">
            <g id="加入社群" transform="translate(0.000000, 304.000000)">
                <g id="编组-9" transform="translate(22.000000, 127.000000)">
                    <g id="web3.0" transform="translate(89.000000, 3.000000)">
                        <g transform="translate(14.000000, 0.000000)" id="编组">
                            <g id="Earth">
                                <rect id="bound" x="0" y="0" width="24" height="24"></rect>
                                <circle id="Oval" fill="#3D50DF" opacity="0.3" cx="12" cy="12" r="9"></circle>
                                <path d="M11.7357634,20.9961946 C6.88740052,20.8563914 3,16.8821712 3,12 C3,11.9168367 3.00112797,11.8339369 3.00336944,11.751315 C3.66233009,11.8143341 4.85636818,11.9573854 4.91262842,12.4204038 C4.9904938,13.0609191 4.91262842,13.8615942 5.45804656,14.101772 C6.00346469,14.3419498 6.15931561,13.1409372 6.6267482,13.4612567 C7.09418079,13.7815761 8.34086797,14.0899175 8.34086797,14.6562185 C8.34086797,15.222396 8.10715168,16.1034596 8.34086797,16.2636193 C8.57458427,16.423779 9.5089688,17.54465 9.50920913,17.7048097 C9.50956962,17.8649694 9.83857487,18.6793513 9.74040201,18.9906563 C9.65905192,19.2487394 9.24857641,20.0501554 8.85059781,20.4145589 C9.75315358,20.7620621 10.7235846,20.9657742 11.7357634,20.9960544 L11.7357634,20.9961946 Z M8.28272988,3.80112099 C9.4158415,3.28656421 10.6744554,3 12,3 C15.5114513,3 18.5532143,5.01097452 20.0364482,7.94408274 C20.069657,8.72412177 20.0638332,9.39135321 20.2361262,9.6327358 C21.1131932,10.8600506 18.0995147,11.7043158 18.5573343,13.5605384 C18.7589671,14.3794892 16.5527814,14.1196773 16.0139722,14.886394 C15.4748026,15.6527403 14.1574598,15.137809 13.8520064,14.9904917 C13.546553,14.8431744 12.3766497,15.3341497 12.4789081,14.4995164 C12.5805657,13.664636 13.2922889,13.6156126 14.0555619,13.2719546 C14.8184743,12.928667 15.9189236,11.7871741 15.3781918,11.6380045 C12.8323064,10.9362407 11.963771,8.47852395 11.963771,8.47852395 C11.8110443,8.44901109 11.8493762,6.74109366 11.1883616,6.69207022 C10.5267462,6.64279981 10.170464,6.88841096 9.20435656,6.69207022 C8.23764828,6.49572949 8.44144409,5.85743687 8.2887174,4.48255778 C8.25453994,4.17415686 8.25619136,3.95717082 8.28272988,3.80112099 Z M20.9991771,11.8770357 C20.9997251,11.9179585 21,11.9589471 21,12 C21,16.9406923 17.0188468,20.9515364 12.0895088,20.9995641 C16.970233,20.9503326 20.9337111,16.888438 20.9991771,11.8770357 L20.9991771,11.8770357 Z" id="Combined-Shape" fill="#558BED" opacity="0.714162427"></path>
                            </g>
                            <g>
                                <path d="M0.0133474576,11.9595763 C0.0133474576,16.2249641 2.28890469,20.1663451 5.98283893,22.299039 C9.67677317,24.431733 14.2278878,24.431733 17.9218221,22.299039 C21.6157563,20.1663451 23.8913136,16.2249641 23.8913136,11.9595763 C23.8913136,5.365858 18.5460488,0.0205932203 11.9523305,0.0205932203 C5.35861224,0.0205932203 0.0133474576,5.365858 0.0133474576,11.9595763 Z" id="路径" fill="url(#linearGradient-1)"></path>
                                <path d="M18.6262288,4.5670339 C18.6262288,4.5670339 18.6248729,4.5670339 18.6262288,4.5670339 C18.5191102,3.82805085 18.0486017,3.66398305 17.3747034,3.64635593 C13.721822,3.54872881 10.8689407,5.005 8.74148305,7.97042373 C8.41741525,8.42330508 7.94012712,8.83279661 7.4425,9.08228814 C5.82758475,9.89042373 4.62080508,11.0782203 3.84385593,12.6944915 C3.74622881,12.8978814 3.77470339,13.2666949 3.90351695,13.4416102 C3.99707627,13.5690678 4.37131356,13.5704237 4.58826271,13.5121186 C5.22555085,13.3426271 5.83978814,13.0727966 6.4825,12.9317797 C6.70894068,12.8816102 7.0425,13.0334746 7.24182203,13.1961864 C8.30622881,14.0694068 9.2404661,15.1568644 10.4160593,15.825339 C11.9048729,16.6714407 12.2357203,17.7344915 11.8167373,19.2572034 C11.7530085,19.4917797 11.8682627,19.9351695 12.0404661,20.0314407 C12.2194492,20.1304237 12.6262288,20.0002542 12.8309746,19.8388983 C14.1570763,18.7961864 15.0465678,17.4321186 15.4248729,15.7982203 C15.6065678,15.0104237 15.9930085,14.4327966 16.5069068,13.844322 C17.5062288,12.6985593 18.1570763,11.6626271 18.5191102,10.385339 L18.5245339,10.3799153 C19.3869068,7.86059322 18.6262288,4.5670339 18.6262288,4.5670339 Z M13.8750424,11.5799153 C12.7455508,11.7141525 11.8357203,10.9751695 11.7082627,9.81855932 C11.5848729,8.70805085 12.3374153,7.71279661 13.4153814,7.5609322 C14.4892797,7.4090678 15.5563983,8.24974576 15.6879237,9.34940678 C15.8235169,10.4816102 15.0425,11.4416102 13.8750424,11.5799153 L13.8750424,11.5799153 Z" id="形状" fill="#FFFFFF" fill-rule="nonzero"></path>
                                <path d="M9.31911017,17.7412712 C9.76792373,17.185339 9.50622881,16.0924576 8.88521186,15.5907627 C8.8825,15.5894068 8.87978814,15.5880508 8.8784322,15.585339 C8.87572034,15.5839831 8.87436441,15.5812712 8.87165254,15.5799153 C8.24927966,15.0768644 7.1265678,15.0524576 6.67775424,15.6070339 C6.18555085,16.2158475 5.67029661,17.7155085 5.37334746,18.8422881 C5.21334746,19.4497458 5.88588983,19.9894068 6.4445339,19.7019492 C7.49131356,19.1636441 8.85131356,18.3216102 9.31911017,17.7412712 L9.31911017,17.7412712 Z" id="路径" fill="#FFFFFF" fill-rule="nonzero"></path>
                            </g>
                        </g>
                    </g>
                </g>
            </g>
        </g>
    </g>
</svg>