<?xml version="1.0" encoding="UTF-8"?>
<svg width="36px" height="36px" viewBox="0 0 36 36" version="1.1" xmlns="http://www.w3.org/2000/svg" xmlns:xlink="http://www.w3.org/1999/xlink">
    <title>平均成本</title>
    <g id="avedex移动版" stroke="none" stroke-width="1" fill="none" fill-rule="evenodd">
        <g id="鲸鱼追踪" transform="translate(-14.000000, -252.000000)">
            <g id="编组-3" transform="translate(0.000000, 142.000000)">
                <g id="平均成本" transform="translate(14.000000, 110.000000)">
                    <circle id="椭圆形" fill="#3B436D" cx="18" cy="18" r="18"></circle>
                    <g id="编组" transform="translate(10.421053, 10.421053)" fill="#878EBE" fill-rule="nonzero">
                        <path d="M14.5229652,14.8027756 L1.39552469,14.8027756 C0.625347878,14.8020604 0.00105599409,14.1780801 0,13.4079038 L0,0.627798902 C0,0.281075143 0.281075143,0 0.627798902,0 C0.974522662,0 1.2555978,0.281075143 1.2555978,0.627798902 L1.2555978,13.4079038 C1.2557417,13.4851095 1.31831891,13.5476477 1.39552469,13.5477436 L14.5229652,13.5477436 C14.7489087,13.545082 14.9588374,13.6640961 15.0725844,13.8593374 C15.1863315,14.0545787 15.1863315,14.2958968 15.0725844,14.491138 C14.9588374,14.6863793 14.7489087,14.8053935 14.5229652,14.8027756 Z M2.79505475,9.72391746 C2.53920021,9.72382661 2.3090198,9.56841685 2.2133051,9.33114012 C2.1175904,9.09386338 2.17550959,8.82223756 2.35968797,8.64464286 L6.10645451,5.03501685 C6.35283444,4.79762828 6.7439286,4.80122944 6.98589541,5.04311468 L9.07478524,7.1310467 L12.6937281,3.59421402 C12.8539182,3.43684087 13.0859818,3.37704344 13.3022771,3.43740505 C13.5185724,3.49776666 13.6861375,3.66908866 13.7416891,3.88666894 C13.7972407,4.10424922 13.7323133,4.3349302 13.5714275,4.49159203 L9.50867178,8.4621371 C9.26272428,8.70248137 8.86919033,8.70022972 8.62600916,8.45708685 L6.53320103,6.36610726 L3.23042154,9.54811601 C3.11364122,9.66103888 2.95750225,9.7240878 2.79505475,9.72391746 L2.79505475,9.72391746 Z" id="形状"></path>
                    </g>
                </g>
            </g>
        </g>
    </g>
</svg>