<?xml version="1.0" encoding="UTF-8"?>
<svg width="36px" height="36px" viewBox="0 0 36 36" version="1.1" xmlns="http://www.w3.org/2000/svg" xmlns:xlink="http://www.w3.org/1999/xlink">
    <title>当前持仓备份</title>
    <g id="avedex移动版" stroke="none" stroke-width="1" fill="none" fill-rule="evenodd">
        <g id="鲸鱼追踪" transform="translate(-14.000000, -200.000000)">
            <g id="编组-3" transform="translate(0.000000, 142.000000)">
                <g id="当前持仓备份" transform="translate(14.000000, 58.000000)">
                    <circle id="椭圆形" fill="#3B436D" cx="18" cy="18" r="18"></circle>
                    <g id="编组" transform="translate(10.421053, 10.421053)" fill="#878EBE" fill-rule="nonzero">
                        <path d="M7.6202406,7.93435614 C7.45778362,7.93448361 7.2970341,7.90121895 7.14796998,7.83662659 L0.892779669,5.1209399 C0.458575037,4.93302825 0.177823702,4.50477201 0.178673999,4.03165075 C0.179528166,3.55852949 0.461820507,3.13128746 0.896699289,2.94494129 L7.16112248,0.0920679158 C7.45703964,-0.0314999834 7.7902584,-0.0306522583 8.085543,0.0944196876 L8.10078596,0.101213695 L14.2609473,2.94738016 C14.6927546,3.13502865 14.9724467,3.56058327 14.9734126,4.03140018 C14.9743735,4.5022171 14.6964253,4.92891277 14.2653895,5.11832682 L8.09852129,7.8336651 C7.94781544,7.90007451 7.78492959,7.93435614 7.6202406,7.93435614 Z M7.5907999,6.81778679 C7.60980298,6.8260345 7.63137504,6.8260345 7.65037812,6.81778679 L13.8172463,4.10244852 C13.8443805,4.09051764 13.8618415,4.06361582 13.8616912,4.03397491 C13.8615389,4.00433399 13.8438041,3.97761185 13.8165495,3.96595865 L13.8011323,3.95916464 L7.64576168,1.11526284 C7.62953148,1.10951712 7.61182074,1.10951712 7.59559054,1.11526284 L1.33648061,3.96534893 C1.30905662,3.97691039 1.29116346,4.00370507 1.29099162,4.03346601 C1.29082225,4.06322694 1.30840705,4.090225 1.33569669,4.10210011 L7.5907999,6.81778679 Z M7.62407311,11.3950316 C7.45409211,11.3951065 7.28590673,11.3602717 7.12993973,11.2926859 L0.334277423,8.34243172 C0.152232545,8.26331222 0.0262258935,8.09308299 0.00372295541,7.89586775 C-0.0187799827,7.69865251 0.0656395241,7.50441294 0.225181465,7.3863172 C0.384723405,7.26822146 0.595149563,7.24421111 0.777194442,7.32333062 L7.57276965,10.2733235 C7.60574353,10.2876541 7.64318662,10.2876541 7.6761605,10.2733235 L14.3756615,7.32333062 C14.557456,7.24202587 14.7688655,7.26426692 14.9297601,7.38162383 C15.0906547,7.49898074 15.1764097,7.69349216 15.1545218,7.89143315 C15.1326338,8.08937415 15.0064528,8.26045006 14.8238047,8.33981864 L8.12430368,11.2898986 C7.96664644,11.3591968 7.79628817,11.3949118 7.62407311,11.3947702 L7.62407311,11.3950316 Z M7.62407311,14.8941198 C7.45408755,14.8942391 7.28589318,14.8594025 7.12993973,14.7917739 L0.334277423,11.8415197 C0.0528604242,11.7192116 -0.0761227768,11.3919277 0.0461853805,11.1105107 C0.168493538,10.8290937 0.495777442,10.7001105 0.777194442,10.8224186 L7.57276965,13.7723243 C7.60574353,13.786655 7.64318662,13.786655 7.6761605,13.7723243 L14.3756615,10.8223315 C14.557224,10.7422784 14.7677025,10.7651688 14.9278118,10.8823801 C15.087921,10.9995913 15.1733366,11.1933162 15.1518834,11.3905805 C15.1304301,11.5878448 15.0053672,11.7586794 14.8238047,11.8387324 L8.12430368,14.789335 C7.96660825,14.8584745 7.79625929,14.8940689 7.62407311,14.8938582 L7.62407311,14.8941198 Z" id="形状"></path>
                    </g>
                </g>
            </g>
        </g>
    </g>
</svg>