<?xml version="1.0" encoding="UTF-8"?>
<svg width="252px" height="93px" viewBox="0 0 252 93" version="1.1" xmlns="http://www.w3.org/2000/svg" xmlns:xlink="http://www.w3.org/1999/xlink">
    <title>恭喜</title>
    <defs>
        <linearGradient x1="-50.4064629%" y1="35.9208174%" x2="-2.11462%" y2="143.691224%" id="linearGradient-1">
            <stop stop-color="#FFC380" offset="0%"></stop>
            <stop stop-color="#FF6366" offset="100%"></stop>
        </linearGradient>
        <path d="M20.521,5.21 C21.675,4.927 22.531,3.885 22.531,2.643 C22.531,1.183 21.347,0 19.887,0 C18.428,0 17.244,1.183 17.244,2.643 C17.244,3.874 18.085,4.908 19.223,5.202 L14.966,16.58 L9.672,10.972 C10.257,10.576 10.642,9.906 10.642,9.146 C10.642,7.93 9.656,6.943 8.439,6.943 C7.222,6.943 6.236,7.93 6.236,9.146 C6.236,10.363 7.222,11.349 8.439,11.349 C8.512,11.349 8.585,11.345 8.656,11.338 L8.164,20.022 L3.869,17.444 C4.204,17.058 4.406,16.554 4.406,16.003 C4.406,14.787 3.42,13.8 2.203,13.8 C0.987,13.8 0,14.787 0,16.003 C0,17.22 0.987,18.206 2.203,18.206 C2.433,18.206 2.654,18.171 2.862,18.106 L6.458,30.761 L33.408,30.761 L36.643,18.179 C36.846,18.24 37.062,18.274 37.285,18.274 C38.501,18.274 39.487,17.287 39.487,16.071 C39.487,14.854 38.501,13.868 37.285,13.868 C36.068,13.868 35.082,14.854 35.082,16.071 C35.082,16.623 35.285,17.127 35.62,17.513 L31.765,20.022 L31.34,11.308 C31.427,11.318 31.516,11.324 31.606,11.324 C32.823,11.324 33.809,10.337 33.809,9.121 C33.809,7.904 32.823,6.918 31.606,6.918 C30.39,6.918 29.403,7.904 29.403,9.121 C29.403,9.88 29.787,10.549 30.371,10.945 L25.098,16.58 L20.521,5.21 Z" id="path-2"></path>
        <path d="M13.766,6.077 C21.208,6.077 27.241,4.903 27.241,3.455 C27.241,2.006 21.208,0.832 13.766,0.832 C6.324,0.832 0.292,2.006 0.292,3.455 C0.292,4.903 6.324,6.077 13.766,6.077 Z" id="path-4"></path>
    </defs>
    <g id="ave-群聊" stroke="none" stroke-width="1" fill="none" fill-rule="evenodd">
        <g id="02-群聊设置-群成员恭喜成为管理员" transform="translate(-64.000000, -207.000000)">
            <g id="通知" transform="translate(32.000000, 170.000000)">
                <g id="恭喜" transform="translate(32.620540, 37.049522)">
                    <g id="编组" transform="translate(95.379460, 37.950478)">
                        <rect id="Rectangle" fill="#FFE2A8" fill-rule="nonzero" opacity="0.287063953" x="0" y="0" width="55" height="55" rx="27.5"></rect>
                        <path d="M28.348,14.914 C29.502,14.631 30.358,13.589 30.358,12.347 C30.358,10.887 29.174,9.704 27.714,9.704 C26.255,9.704 25.071,10.887 25.071,12.347 C25.071,13.578 25.912,14.612 27.05,14.906 L22.793,26.284 L17.499,20.676 C18.084,20.28 18.469,19.61 18.469,18.85 C18.469,17.634 17.483,16.647 16.266,16.647 C15.049,16.647 14.063,17.634 14.063,18.85 C14.063,20.067 15.049,21.053 16.266,21.053 C16.339,21.053 16.412,21.049 16.483,21.042 L15.991,29.726 L11.696,27.148 C12.031,26.762 12.233,26.258 12.233,25.707 C12.233,24.491 11.247,23.504 10.03,23.504 C8.814,23.504 7.827,24.491 7.827,25.707 C7.827,26.924 8.814,27.91 10.03,27.91 C10.26,27.91 10.481,27.875 10.689,27.81 L14.285,40.465 L41.235,40.465 L44.47,27.883 C44.673,27.944 44.889,27.978 45.112,27.978 C46.328,27.978 47.314,26.991 47.314,25.775 C47.314,24.558 46.328,23.572 45.112,23.572 C43.895,23.572 42.909,24.558 42.909,25.775 C42.909,26.327 43.112,26.831 43.447,27.217 L39.592,29.726 L39.167,21.012 C39.254,21.022 39.343,21.028 39.433,21.028 C40.65,21.028 41.636,20.041 41.636,18.825 C41.636,17.608 40.65,16.622 39.433,16.622 C38.217,16.622 37.23,17.608 37.23,18.825 C37.23,19.584 37.614,20.253 38.198,20.649 L32.925,26.284 L28.348,14.914 Z" id="Path" fill="url(#linearGradient-1)"></path>
                        <g id="Clipped" transform="translate(7.827000, 9.704000)">
                            <mask id="mask-3" fill="white">
                                <use xlink:href="#path-2"></use>
                            </mask>
                            <g id="Path"></g>
                            <g id="Group" mask="url(#mask-3)" fill="#C7365C" opacity="0.25">
                                <g transform="translate(3.173000, 10.296000)" id="Path">
                                    <polygon points="6.436 0.574 10.965 8.399 12.062 5.647"></polygon>
                                    <polygon points="27.272 0.574 22.743 8.399 21.646 5.647"></polygon>
                                    <polygon points="0.683 7.146 4.752 12.642 5.024 9.221"></polygon>
                                    <polygon points="32.497 7.187 28.803 12.642 28.531 9.221"></polygon>
                                </g>
                            </g>
                        </g>
                        <polygon id="Path" fill="#6E182E" opacity="0.1" points="27.826 28.043 30.973 32.602 27.826 37.161 24.679 32.602"></polygon>
                        <polygon id="Path" fill="#6E182E" opacity="0.1" points="20.507 31.661 22.969 33.754 21.884 36.798 19.423 34.704"></polygon>
                        <polygon id="Path" fill="#6E182E" opacity="0.1" points="35.21 31.404 32.749 33.497 33.834 36.541 36.295 34.448"></polygon>
                        <path d="M27.766,43.077 C35.208,43.077 41.241,41.903 41.241,40.455 C41.241,39.006 35.208,37.832 27.766,37.832 C20.324,37.832 14.292,39.006 14.292,40.455 C14.292,41.903 20.324,43.077 27.766,43.077 Z" id="Path" fill="#C24050" fill-rule="nonzero"></path>
                        <g id="Clipped" transform="translate(14.000000, 37.000000)">
                            <mask id="mask-5" fill="white">
                                <use xlink:href="#path-4"></use>
                            </mask>
                            <g id="Path"></g>
                            <path d="M13.766,-1.96 L13.302,-1.959 C5.755,-1.912 -0.108,-0.735 -0.108,1.062 C-0.108,2.842 5.639,4.013 13.076,4.082 L13.534,4.084 L13.999,4.084 C21.657,4.061 27.641,2.878 27.641,1.062 C27.641,-0.735 21.777,-1.912 14.23,-1.959 L13.766,-1.96 Z M13.766,-1.16 L14.192,-1.159 C21.117,-1.114 26.841,0.021 26.841,1.062 C26.841,2.093 21.231,3.216 14.399,3.282 L13.979,3.284 L13.553,3.284 C6.533,3.262 0.692,2.114 0.692,1.062 C0.692,0.021 6.416,-1.114 13.341,-1.159 L13.766,-1.16 Z" id="Shape" fill="#7B0035" mask="url(#mask-5)"></path>
                        </g>
                        <polygon id="Path" fill="#FFE2A8" points="27.826 26.154 30.973 30.713 27.826 35.272 24.679 30.713"></polygon>
                        <polygon id="Path" fill="#FFE2A8" points="20.057 29.916 22.519 32.01 21.434 35.053 18.973 32.96"></polygon>
                        <polygon id="Path" fill="#FFE2A8" points="35.595 29.916 33.133 32.01 34.218 35.053 36.68 32.96"></polygon>
                    </g>
                    <g id="碎片">
                        <polygon id="路径-3" fill="#FFA7A7" transform="translate(11.129460, 28.700478) rotate(-62.000000) translate(-11.129460, -28.700478) " points="14.3794603 19.9504781 3.87946027 27.9504781 9.12946027 37.4504781 18.3794603 28.7004781"></polygon>
                        <polygon id="路径-3备份" fill="#C791FF" transform="translate(244.839892, 12.532476) rotate(-17.000000) translate(-244.839892, -12.532476) " points="249.339892 6.95047811 240.339892 9.57648697 240.339892 18.1144742 248.486128 14.4370611"></polygon>
                        <polygon id="路径-3备份-6" fill="#FF91C9" transform="translate(217.405435, 35.971034) rotate(-17.000000) translate(-217.405435, -35.971034) " points="220.405435 30.3890357 214.405435 33.0150445 214.405435 41.5530318 219.836259 37.8756186"></polygon>
                        <polygon id="路径-3备份-2" fill="#FF91EB" transform="translate(129.913749, 13.016121) rotate(-104.000000) translate(-129.913749, -13.016121) " points="133.413749 7.01612074 126.413749 9.83877546 126.413749 19.0161207 132.74971 15.0633285"></polygon>
                        <polygon id="路径-3备份-4" fill="#FF9791" transform="translate(49.913749, 40.016121) rotate(-104.000000) translate(-49.913749, -40.016121) " points="53.4137487 34.0161207 46.4137487 36.8387755 46.4137487 46.0161207 52.7497102 42.0633285"></polygon>
                        <polygon id="路径-3备份-7" fill="#FF9791" transform="translate(77.002861, 22.741886) rotate(-104.000000) translate(-77.002861, -22.741886) " points="80.5028615 19.7418864 73.5028615 21.1532138 73.5028615 25.7418864 79.8388231 23.7654903"></polygon>
                        <polygon id="路径-3备份-5" fill="#91FFE3" transform="translate(47.913749, 13.016121) rotate(-104.000000) translate(-47.913749, -13.016121) " points="51.4137487 7.01612074 44.4137487 9.83877546 44.4137487 19.0161207 50.7497102 15.0633285"></polygon>
                        <polygon id="路径-3备份-3" fill="#8CFF73" transform="translate(183.245396, 11.063371) rotate(-53.000000) translate(-183.245396, -11.063371) " points="185.413834 5.95047811 173.245396 13.6544781 185.108389 16.1762631 193.245396 9.24089301"></polygon>
                    </g>
                    <g id="碎片" opacity="0.113621911" transform="translate(114.339656, 50.572393) scale(-1, -1) translate(-114.339656, -50.572393) translate(4.379460, 28.398650)">
                        <polygon id="路径-3" fill="#FFC4C4" points="9.4137931 19.551828 0 27.7803994 4.70689655 37.551828 13 28.551828"></polygon>
                        <polygon id="路径-3备份" fill="#C791FF" transform="translate(214.235227, 12.133826) rotate(-17.000000) translate(-214.235227, -12.133826) " points="218.44659 6.46358259 210.293585 9.3485438 210.023865 17.8040695 217.444539 13.9048295"></polygon>
                        <polygon id="路径-3备份-6" fill="#FF91C9" transform="translate(189.900485, 35.572384) rotate(-17.000000) translate(-189.900485, -35.572384) " points="192.76684 29.949526 187.303851 32.7397155 187.034131 41.1952412 192.019971 37.3817826"></polygon>
                        <polygon id="路径-3备份-2" fill="#FF91EB" transform="translate(112.323595, 12.735556) rotate(-104.000000) translate(-112.323595, -12.735556) " points="115.763019 7.46662388 108.88417 9.80336947 109.127571 18.004488 115.316799 14.64021"></polygon>
                        <polygon id="路径-3备份-4" fill="#FF9791" transform="translate(41.362491, 39.735556) rotate(-104.000000) translate(-41.362491, -39.735556) " points="44.8019156 34.4666239 37.9230663 36.8033695 38.166467 45.004488 44.3556955 41.64021"></polygon>
                        <polygon id="路径-3备份-7" fill="#FF9791" transform="translate(65.376187, 22.402279) rotate(-104.000000) translate(-65.376187, -22.402279) " points="68.834327 19.8142263 61.9180466 20.8897724 62.039747 24.9903316 68.2813932 23.3922135"></polygon>
                        <polygon id="路径-3备份-5" fill="#91FFE3" transform="translate(39.588463, 12.735556) rotate(-104.000000) translate(-39.588463, -12.735556) " points="43.027888 7.46662388 36.1490387 9.80336947 36.3924394 18.004488 42.5816679 14.64021"></polygon>
                        <polygon id="路径-3备份-3" fill="#8CFF73" transform="translate(159.500079, 10.615512) rotate(-53.000000) translate(-159.500079, -10.615512) " points="161.878305 5.86278484 149.789455 13.6724011 161.030052 15.3682387 169.210703 8.49078667"></polygon>
                    </g>
                </g>
            </g>
        </g>
    </g>
</svg>