<?xml version="1.0" encoding="UTF-8"?>
<svg width="36px" height="36px" viewBox="0 0 36 36" version="1.1" xmlns="http://www.w3.org/2000/svg" xmlns:xlink="http://www.w3.org/1999/xlink">
    <title>持仓金额备份</title>
    <g id="avedex移动版" stroke="none" stroke-width="1" fill="none" fill-rule="evenodd">
        <g id="鲸鱼追踪" transform="translate(-202.000000, -200.000000)">
            <g id="编组-3" transform="translate(0.000000, 142.000000)">
                <g id="持仓金额备份" transform="translate(202.000000, 58.000000)">
                    <circle id="椭圆形" fill="#3B436D" cx="18" cy="18" r="18"></circle>
                    <g id="编组" transform="translate(10.421053, 10.421053)" fill="#878EBE" fill-rule="nonzero">
                        <g id="形状">
                            <path d="M7.57894024,15.1568293 C6.55578738,15.1568293 5.56316068,14.956808 4.62948105,14.5620731 C3.72908593,14.1811469 2.91089667,13.6296108 2.22001921,12.9378706 C0.795166003,11.5185393 -0.00399278222,9.58903883 1.50018251e-05,7.57789694 C-0.00394586711,5.5670734 0.795227206,3.63791735 2.22001921,2.2189759 C3.63893493,0.794272724 5.56819915,-0.00456620194 7.57894024,1.96356249e-05 C9.58953798,-0.00228011595 11.5182859,0.796188203 12.9389139,2.2189759 C14.3633198,3.63809067 15.162105,5.56722523 15.1578727,7.57789694 C15.162737,9.58900265 14.3638766,11.5186978 12.9389139,12.9378706 C11.5197411,14.3628333 9.59004595,15.1616937 7.57894024,15.1568293 L7.57894024,15.1568293 Z M7.57894024,1.16529686 C4.0392132,1.16935846 1.1708733,4.03816927 1.1673928,7.57789694 C1.1708733,11.1176246 4.0392132,13.9864354 7.57894024,13.990497 C11.1190784,13.9870155 13.9880588,11.1180351 13.9915403,7.57789694 C13.9869012,4.03823908 11.1185981,1.169936 7.57894024,1.16529686 L7.57894024,1.16529686 Z M7.57894024,12.708399 C7.25799785,12.7066777 6.99808543,12.4472344 6.99578521,12.1262956 L6.99578521,11.254721 L6.90736459,11.2326158 C6.58083445,11.1559462 6.26949184,11.0250044 5.98631648,10.8452493 C5.76546296,10.7129497 5.56510581,10.5491178 5.39158256,10.3589359 C5.17997134,10.1159318 5.20542029,9.74739326 5.44842439,9.53578204 C5.6914285,9.32417082 6.05996703,9.34961977 6.27157826,9.59262387 C6.31999907,9.64841306 6.43789323,9.75157047 6.60526082,9.8568331 C6.91052247,10.0473585 7.23683667,10.1431475 7.57683498,10.1431475 C7.98209615,10.1431475 8.35262064,9.99893767 8.56840906,9.75893884 C8.691029,9.63421667 8.75426888,9.46289409 8.74209243,9.28841485 C8.70209262,8.9231535 8.39367309,8.65894427 7.42315153,8.15473621 L7.19894211,8.03999992 C6.45263,7.65263339 6.03473732,7.38000316 5.75684394,7.09789929 C5.45684541,6.79369025 5.30737247,6.46421819 5.2568464,5.99685206 C5.20577268,5.52959535 5.34886805,5.06187139 5.65263391,4.70317422 C5.95368507,4.33264973 6.39999865,4.05791424 6.90841722,3.92949382 L6.99473259,3.90738865 L6.99473259,3.03160349 C7.01329306,2.72255647 7.26933638,2.48142903 7.57894024,2.48142903 C7.8885441,2.48142903 8.14458742,2.72255647 8.16314789,3.03160349 L8.16314789,3.90317816 L8.25156852,3.92423068 C8.57998795,4.00212502 8.88840751,4.13265072 9.17261661,4.31159721 C9.49787817,4.5147541 9.68419304,4.70317422 9.76735055,4.7979106 C9.97147704,5.04134554 9.94318895,5.40338299 9.70372869,5.61215793 C9.46426842,5.82093287 9.10175349,5.79961947 8.88840748,5.56422263 C8.78890943,5.46184241 8.67636372,5.37300917 8.55367228,5.3000134 C8.26398476,5.1132276 7.92678216,5.01349162 7.58209813,5.01264639 C7.17788959,5.01264639 6.80631246,5.15685621 6.59052405,5.39790766 C6.46798586,5.52274394 6.40443466,5.69387276 6.41578805,5.86843165 C6.45578786,6.23264037 6.7642074,6.49790223 7.73578158,7.00105766 L7.95893837,7.11579395 C8.70525048,7.50316048 9.12209056,7.77684334 9.40103654,8.05894721 C9.69998244,8.36315625 9.85050801,8.69262831 9.90208671,9.15894181 C9.95261278,9.62315005 9.81577134,10.0705163 9.50524657,10.4526196 C9.18038174,10.8377069 8.74061756,11.1085012 8.25051589,11.2252474 L8.16314789,11.2473526 L8.16314789,12.1241904 C8.16342798,12.2792176 8.10196766,12.4279759 7.99234669,12.5375968 C7.88272573,12.6472178 7.73396744,12.7086781 7.57894024,12.708399 L7.57894024,12.708399 Z"></path>
                        </g>
                    </g>
                </g>
            </g>
        </g>
    </g>
</svg>