<?xml version="1.0" encoding="UTF-8"?>
<svg width="24px" height="26px" viewBox="0 0 24 26" version="1.1" xmlns="http://www.w3.org/2000/svg" xmlns:xlink="http://www.w3.org/1999/xlink">
    <title>病毒</title>
    <g id="avedex移动版" stroke="none" stroke-width="1" fill="none" fill-rule="evenodd">
        <g id="合约检测11/18" transform="translate(-101.000000, -186.000000)" fill="#878FBC" fill-rule="nonzero">
            <g id="病毒" transform="translate(101.000000, 186.000000)">
                <path d="M4.88010204,21.6688776 C1.80725374,19.4051598 -0.00475979165,15.8140957 -9.35393714e-06,11.997449 C-9.35393714e-06,5.37193878 5.35204082,-1.77635684e-15 11.9566327,-1.77635684e-15 C18.5607143,-1.77635684e-15 23.9132742,5.37244898 23.9132742,11.997449 C23.9179057,15.8141866 22.1056939,19.4052682 19.0326531,21.6688776 L19.0326531,22.8602041 C19.0326531,23.5693878 18.5704082,24.3321429 17.9367347,24.652551 C17.6362245,24.8326531 17.1102041,25.0760204 16.3673469,25.3132653 C15.1102041,25.7142857 13.6367347,25.9540816 11.9566327,25.9540816 C10.2765306,25.9540816 8.80102041,25.7137755 7.54132653,25.3112245 C6.79132653,25.0714286 6.2622449,24.8265306 5.96173469,24.6454082 C5.3377551,24.3178571 4.88010204,23.5647959 4.88010204,22.8602041 L4.88010204,21.6688776 Z M11.9566327,16.5484694 L9.91581633,20.630102 L13.997449,20.630102 L11.9566327,16.5484694 Z M7.61989796,15.0178571 C9.16967659,15.0178571 10.4260204,13.7615133 10.4260204,12.2117347 C10.4260204,10.6619561 9.16967659,9.40561224 7.61989796,9.40561224 C6.07011932,9.40561224 4.81377551,10.6619561 4.81377551,12.2117347 C4.81377551,13.7615133 6.07011932,15.0178571 7.61989796,15.0178571 L7.61989796,15.0178571 Z M16.2933673,15.0178571 C17.843146,15.0178571 19.0994898,13.7615133 19.0994898,12.2117347 C19.0994898,10.6619561 17.843146,9.40561224 16.2933673,9.40561224 C14.7435887,9.40561224 13.4872449,10.6619561 13.4872449,12.2117347 C13.4872449,13.7615133 14.7435887,15.0178571 16.2933673,15.0178571 L16.2933673,15.0178571 Z" id="形状"></path>
            </g>
        </g>
    </g>
</svg>