<?xml version="1.0" encoding="UTF-8"?>
<svg width="36px" height="36px" viewBox="0 0 36 36" version="1.1" xmlns="http://www.w3.org/2000/svg" xmlns:xlink="http://www.w3.org/1999/xlink">
    <title>盈亏情况备份</title>
    <g id="avedex移动版" stroke="none" stroke-width="1" fill="none" fill-rule="evenodd">
        <g id="鲸鱼追踪" transform="translate(-202.000000, -252.000000)">
            <g id="编组-3" transform="translate(0.000000, 142.000000)">
                <g id="盈亏情况备份" transform="translate(202.000000, 110.000000)">
                    <circle id="椭圆形" fill="#3B436D" cx="18" cy="18" r="18"></circle>
                    <g id="编组" transform="translate(10.421053, 10.421053)" fill="#878EBE" fill-rule="nonzero">
                        <g id="形状">
                            <path d="M9.79647225,6.2841998 L9.80923606,6.2841998 C10.3829868,6.27622242 11.0051337,6.27241101 11.6140735,6.26877687 C12.4697803,6.26363589 13.2779773,6.25876083 13.9120902,6.24289471 C14.1980951,6.23622545 14.4636576,6.09316231 14.6265662,5.85799413 C14.7894747,5.62282594 14.8300752,5.32392445 14.7357988,5.05382219 C13.9626091,2.88883693 12.2567931,1.18634072 10.0903057,0.417370049 C9.81681923,0.322697531 9.51442772,0.366200995 9.27872015,0.534128556 C9.04301259,0.702056117 8.90312297,0.973651536 8.90327182,1.26306076 C8.90282863,1.78354036 8.90211953,2.7766353 8.90194204,5.38771978 C8.90159923,5.88221281 9.30197965,6.28346603 9.79647225,6.2841998 Z M10.0460755,1.62381553 C11.619654,2.28336808 12.8714853,3.53421274 13.5322784,5.10727062 C12.9712028,5.11719803 12.3050917,5.12118672 11.6071598,5.12544132 C11.083312,5.12854363 10.5495367,5.13182322 10.0451005,5.13776193 C10.0451892,3.19411808 10.0458096,2.20093451 10.0460755,1.62381553 Z M14.910858,7.28101751 C14.7410427,7.10403136 14.5064228,7.00390981 14.2611449,7.00375931 L8.22492877,7.00375931 C8.20470793,7.00402009 8.18522535,6.99616956 8.17083456,6.98196198 C8.15644376,6.9677544 8.14834426,6.94837401 8.14834594,6.92815149 C8.14320496,6.00437111 8.14630728,4.73392933 8.14958687,3.38876611 C8.15144825,2.57533946 8.15348692,1.7274328 8.15393011,0.896367284 C8.15477482,0.651134356 8.05476383,0.416338907 7.87734782,0.247036031 C7.69993182,0.0777331546 7.46071545,-0.0111860867 7.21579044,0.00112818788 C3.03982392,0.210617286 -0.181710259,3.7555013 0.00796343391,7.93241475 C0.186124878,11.8013545 3.35633493,14.9714759 7.22518602,15.1493714 C7.34360577,15.154867 7.46096186,15.1575261 7.5784066,15.1575261 C11.6223925,15.1531821 14.9540109,11.9813255 15.1569158,7.94243079 C15.168334,7.69765973 15.0794779,7.45881109 14.910858,7.28101751 L14.910858,7.28101751 Z M1.15005806,7.88011861 C0.993329632,4.43381355 3.57504804,1.47381222 7.01068319,1.16077305 C7.00997409,1.90532834 7.00820134,2.65963375 7.00651723,3.38601835 C7.00332627,4.73330887 7.00013532,6.00614386 7.0052763,6.93453339 C7.00607857,7.02587952 7.0172294,7.11684056 7.03851538,7.20567561 L2.7585634,11.8187274 C1.78876466,10.7278083 1.2211939,9.33804654 1.15005806,7.88011861 L1.15005806,7.88011861 Z M7.27730489,14.00772 C5.92986353,13.9427353 4.63766985,13.4524452 3.58626069,12.6072469 L7.79751858,8.06820745 C7.9339522,8.12014812 8.07867694,8.14690673 8.22466286,8.1471835 L13.9969164,8.1471835 C13.6849165,11.5834458 10.7240815,14.1657501 7.27730489,14.00772 L7.27730489,14.00772 Z"></path>
                        </g>
                    </g>
                </g>
            </g>
        </g>
    </g>
</svg>